<svg xmlns="http://www.w3.org/2000/svg" xmlns:xlink="http://www.w3.org/1999/xlink" fill="none" version="1.1" width="17.581947326660156" height="17.58154296875" viewBox="0 0 17.581947326660156 17.58154296875"><defs><filter id="master_svg0_2378_39232" filterUnits="objectBoundingBox" color-interpolation-filters="sRGB" x="0" y="0" width="1" height="1"><feFlood flood-opacity="0" result="BackgroundImageFix"/><feBlend mode="normal" in="SourceGraphic" in2="BackgroundImageFix" result="shape"/><feGaussianBlur in="BackgroundImageFix" stdDeviation="0.5"/><feComposite in2="SourceAlpha" operator="in" result="effect1_foregroundBlur"/><feBlend mode="normal" in="SourceGraphic" in2="effect1_foregroundBlur" result="shape"/></filter><linearGradient x1="0.44145336747169495" y1="-2.1303572239617097e-9" x2="0.44145336747169495" y2="1" id="master_svg1_2371_18590"><stop offset="0%" stop-color="#CEFF41" stop-opacity="1"/><stop offset="65.86537957191467%" stop-color="#DBFF00" stop-opacity="0"/><stop offset="100%" stop-color="#DBFF00" stop-opacity="0"/></linearGradient><radialGradient cx="0" cy="0" r="1" gradientUnits="userSpaceOnUse" id="master_svg2_2371_18557" gradientTransform="translate(9.788298633364548 9.296728467212802) rotate(52.63657299792393) scale(4.842153921295405 4.716620020168472)"><stop offset="0%" stop-color="#05FF00" stop-opacity="0"/><stop offset="100%" stop-color="#05FF00" stop-opacity="1"/></radialGradient><linearGradient x1="0.5" y1="0" x2="0.5" y2="1" id="master_svg3_2371_18558"><stop offset="0%" stop-color="#05FF00" stop-opacity="0"/><stop offset="100%" stop-color="#251B00" stop-opacity="1"/></linearGradient><linearGradient x1="0.19439280033111572" y1="0.11446335911750793" x2="0.888500213623047" y2="0.8276396393775939" id="master_svg4_2371_18560"><stop offset="0%" stop-color="#93FD40" stop-opacity="1"/><stop offset="100%" stop-color="#FFC700" stop-opacity="0"/><stop offset="100%" stop-color="#DBFF00" stop-opacity="0.20000000298023224"/></linearGradient><mask id="master_svg5_2378_39235" style="mask-type:alpha" maskUnits="objectBoundingBox"><g><ellipse cx="9.471293568611145" cy="9.470718622207642" rx="4.971029281616211" ry="4.971029281616211" fill="#FFFFFF" fill-opacity="1"/></g></mask><filter id="master_svg6_2378_39236" filterUnits="objectBoundingBox" color-interpolation-filters="sRGB" x="-4.134500157660679" y="-5.73456036213145" width="9.269000315321358" height="12.4691207242629"><feFlood flood-opacity="0" result="BackgroundImageFix"/><feBlend mode="normal" in="SourceGraphic" in2="BackgroundImageFix" result="shape"/><feGaussianBlur stdDeviation="8.5" result="effect1_foregroundBlur"/></filter><linearGradient x1="0.23634430766105652" y1="0.09539453685283661" x2="1.0004175182444188" y2="0.6155642719858025" id="master_svg7_2371_18601"><stop offset="0%" stop-color="#FFB800" stop-opacity="1"/><stop offset="100%" stop-color="#FFF500" stop-opacity="1"/></linearGradient><filter id="master_svg8_2378_39237" filterUnits="objectBoundingBox" color-interpolation-filters="sRGB" x="-2.0049026210887275" y="-3.2657584197553318" width="5.009805242177455" height="7.5315168395106635"><feFlood flood-opacity="0" result="BackgroundImageFix"/><feBlend mode="normal" in="SourceGraphic" in2="BackgroundImageFix" result="shape"/><feGaussianBlur stdDeviation="2.5" result="effect1_foregroundBlur"/></filter><linearGradient x1="0.5707908868789673" y1="0.14297884702682495" x2="0.4729414554082031" y2="0.9415684561471976" id="master_svg9_2371_18594"><stop offset="0%" stop-color="#05FF00" stop-opacity="1"/><stop offset="100%" stop-color="#FFE600" stop-opacity="1"/></linearGradient><filter id="master_svga_2378_39238" filterUnits="objectBoundingBox" color-interpolation-filters="sRGB" x="-2.894264795821796" y="-6.128084037205907" width="6.788529591643592" height="13.256168074411814"><feFlood flood-opacity="0" result="BackgroundImageFix"/><feBlend mode="normal" in="SourceGraphic" in2="BackgroundImageFix" result="shape"/><feGaussianBlur stdDeviation="2.5" result="effect1_foregroundBlur"/></filter><linearGradient x1="0.5707908868789673" y1="0.14297884702682495" x2="0.40925196683832704" y2="0.923260088528134" id="master_svgb_2371_18597"><stop offset="0%" stop-color="#CCFFD7" stop-opacity="1"/><stop offset="100%" stop-color="#00FF47" stop-opacity="1"/></linearGradient><mask id="master_svgc_2378_39240" style="mask-type:alpha" maskUnits="objectBoundingBox"><g><ellipse cx="9.470878601074219" cy="9.470703125" rx="6" ry="6" fill="#FFFFFF" fill-opacity="1"/></g></mask><radialGradient cx="0" cy="0" r="1" gradientUnits="userSpaceOnUse" id="master_svgd_2371_18505" gradientTransform="translate(2.4381512412157917 5.718885076967155) rotate(44.2222720141758) scale(7.530096132540925 5.632290828482996)"><stop offset="0%" stop-color="#FFFFFF" stop-opacity="1"/><stop offset="36.93000078201294%" stop-color="#8DC8FF" stop-opacity="0.5"/><stop offset="100%" stop-color="#000000" stop-opacity="0"/></radialGradient><radialGradient cx="0" cy="0" r="1" gradientUnits="userSpaceOnUse" id="master_svge_2371_18506" gradientTransform="translate(13.086332764842268 16.270704560388253) rotate(45.261629495850016) scale(7.461340746577684 6.24195669235419)"><stop offset="0%" stop-color="#FFFFFF" stop-opacity="1"/><stop offset="36.93000078201294%" stop-color="#8DC8FF" stop-opacity="0.5"/><stop offset="100%" stop-color="#000000" stop-opacity="0"/></radialGradient><radialGradient cx="0" cy="0" r="1" gradientUnits="userSpaceOnUse" id="master_svgf_2371_18507" gradientTransform="translate(13.230878948298368 6.056158787066323) rotate(134.99998367785443) scale(6.9502160918217974 5.416062534661131)"><stop offset="0%" stop-color="#FFFFFF" stop-opacity="1"/><stop offset="36.93000078201294%" stop-color="#8DD6FF" stop-opacity="0.5"/><stop offset="100%" stop-color="#000000" stop-opacity="0"/></radialGradient><radialGradient cx="0" cy="0" r="1" gradientUnits="userSpaceOnUse" id="master_svgg_2371_18508" gradientTransform="translate(2.6790605418248674 16.02979396744206) rotate(135.5405121245899) scale(7.2230955334622875 5.849702111674197)"><stop offset="0%" stop-color="#FFFFFF" stop-opacity="1"/><stop offset="36.93000078201294%" stop-color="#8DD6FF" stop-opacity="0.5"/><stop offset="100%" stop-color="#000000" stop-opacity="0"/></radialGradient><filter id="master_svgh_2378_39242" filterUnits="objectBoundingBox" color-interpolation-filters="sRGB" x="-4.028239168889342" y="-5.692181688761742" width="9.056478337778683" height="12.384363377523483"><feFlood flood-opacity="0" result="BackgroundImageFix"/><feBlend mode="normal" in="SourceGraphic" in2="BackgroundImageFix" result="shape"/><feGaussianBlur stdDeviation="12" result="effect1_foregroundBlur"/></filter><filter id="master_svgi_2378_39243" filterUnits="objectBoundingBox" color-interpolation-filters="sRGB" x="-0.6991415550688256" y="-0.6991415550688256" width="2.398283110137651" height="2.398283110137651"><feFlood flood-opacity="0" result="BackgroundImageFix"/><feBlend mode="normal" in="SourceGraphic" in2="BackgroundImageFix" result="shape"/><feGaussianBlur stdDeviation="1.5" result="effect1_foregroundBlur"/></filter><linearGradient x1="0.24164220690727234" y1="0.09491746127605438" x2="0.4462115168571473" y2="0.299486756324768" id="master_svgj_2371_18579"><stop offset="0%" stop-color="#CCFF00" stop-opacity="1"/><stop offset="100%" stop-color="#9CFF4F" stop-opacity="1"/></linearGradient><linearGradient x1="0.24164220690727234" y1="0.09491746127605438" x2="0.4462115168571473" y2="0.299486756324768" id="master_svgk_2371_18563"><stop offset="0%" stop-color="#F3FF69" stop-opacity="1"/><stop offset="77.49356031417847%" stop-color="#9EFF00" stop-opacity="1"/><stop offset="100%" stop-color="#9EFF00" stop-opacity="1"/></linearGradient><linearGradient x1="0.2527799606323242" y1="0.11672892421483994" x2="0.30318346619606024" y2="0.16965256631374354" id="master_svgl_2371_18572"><stop offset="0%" stop-color="#FFFFFF" stop-opacity="1"/><stop offset="100%" stop-color="#BCFF4F" stop-opacity="0"/></linearGradient><linearGradient x1="0.19439280033111572" y1="0.11446335911750793" x2="0.8885002136230468" y2="0.8276396393775942" id="master_svgm_2371_18566"><stop offset="0%" stop-color="#87FF74" stop-opacity="1"/><stop offset="100%" stop-color="#89FF7E" stop-opacity="1"/></linearGradient><filter id="master_svgn_2378_39247" filterUnits="objectBoundingBox" color-interpolation-filters="sRGB" x="-0.3023629385557831" y="-0.25531625297657146" width="1.6047258771115662" height="1.510632505953143"><feFlood flood-opacity="0" result="BackgroundImageFix"/><feBlend mode="normal" in="SourceGraphic" in2="BackgroundImageFix" result="shape"/><feGaussianBlur stdDeviation="0.25" result="effect1_foregroundBlur"/></filter><radialGradient cx="0" cy="0" r="1" gradientUnits="userSpaceOnUse" id="master_svgo_2371_18575" gradientTransform="translate(12.917796838591258 13.107083623876107) rotate(45.240478766966326) scale(1.639010386620685 1.3779845153752148)"><stop offset="0%" stop-color="#F1FFDE" stop-opacity="1"/><stop offset="100%" stop-color="#FFFFFF" stop-opacity="0"/></radialGradient><filter id="master_svgp_2378_39248" filterUnits="objectBoundingBox" color-interpolation-filters="sRGB" x="-0.5923048317688117" y="-0.5923337179630093" width="2.1846096635376235" height="2.1846674359260185"><feFlood flood-opacity="0" result="BackgroundImageFix"/><feBlend mode="normal" in="SourceGraphic" in2="BackgroundImageFix" result="shape"/><feGaussianBlur stdDeviation="0.75" result="effect1_foregroundBlur"/></filter><linearGradient x1="0.7005606293678284" y1="0.6890538334846497" x2="0.48826914152006284" y2="0.43561610596671124" id="master_svgq_2371_18569"><stop offset="0%" stop-color="#9EFF00" stop-opacity="1"/><stop offset="100%" stop-color="#E4FF78" stop-opacity="0"/></linearGradient><filter id="master_svgr_2378_39249" filterUnits="objectBoundingBox" color-interpolation-filters="sRGB" x="-1.2287457623940818" y="-1.2288057600270001" width="3.4574915247881637" height="3.4576115200540003"><feFlood flood-opacity="0" result="BackgroundImageFix"/><feBlend mode="normal" in="SourceGraphic" in2="BackgroundImageFix" result="shape"/><feGaussianBlur stdDeviation="1.5" result="effect1_foregroundBlur"/></filter><linearGradient x1="0.7005606293678284" y1="0.6890538334846497" x2="0.48826912674551176" y2="0.43561611834378633" id="master_svgs_2371_18413"><stop offset="0%" stop-color="#FFFFFF" stop-opacity="1"/><stop offset="100%" stop-color="#FFFFFF" stop-opacity="0"/></linearGradient><filter id="master_svgt_2378_39250" filterUnits="objectBoundingBox" color-interpolation-filters="sRGB" x="-0.5993709347744058" y="-0.5994002287816587" width="2.1987418695488117" height="2.1988004575633173"><feFlood flood-opacity="0" result="BackgroundImageFix"/><feBlend mode="normal" in="SourceGraphic" in2="BackgroundImageFix" result="shape"/><feGaussianBlur stdDeviation="0.5" result="effect1_foregroundBlur"/></filter><linearGradient x1="0.7005606293678284" y1="0.6890538334846497" x2="0.48826911521067373" y2="0.4356161280068605" id="master_svgu_2371_18554"><stop offset="0%" stop-color="#FFFFFF" stop-opacity="1"/><stop offset="100%" stop-color="#CCFF00" stop-opacity="0"/></linearGradient></defs><g><g><g filter="url(#master_svg0_2378_39232)"><ellipse cx="9.470878601074219" cy="9.470703125" rx="6" ry="6" fill="#05FF00" fill-opacity="0.800000011920929"/><path d="M15.470878601074219,9.470703125Q15.470878601074219,9.617994825,15.46365060107422,9.765109525Q15.456423601074219,9.912223825,15.441986601074218,10.058806425Q15.427549601074219,10.205389024999999,15.40593760107422,10.351085625Q15.38432460107422,10.496783225,15.355588601074219,10.641244924999999Q15.32685360107422,10.785706525,15.29106560107422,10.928584625Q15.255275601074219,11.071461724999999,15.21252060107422,11.212411424999999Q15.16976360107422,11.353360225,15.120141601074218,11.492041625Q15.070520601074218,11.630723025,15.01415460107422,11.766802825Q14.957788601074219,11.902882625,14.894813601074219,12.036033625Q14.83183860107422,12.169183725,14.762405601074219,12.299083725Q14.692972601074219,12.428983725,14.617248601074218,12.555319825Q14.541525601074218,12.681655925,14.459694601074219,12.804123925Q14.37786360107422,12.926592825,14.290122601074218,13.044898025Q14.202381601074219,13.163204225,14.108940601074218,13.277062425Q14.01550060107422,13.390919725,13.91658560107422,13.500055125Q13.81767060107422,13.609192125,13.713518601074218,13.713343125Q13.609368601074218,13.817493125,13.500232601074218,13.916409125Q13.39109710107422,14.015324125,13.277239801074218,14.108765125Q13.163381601074219,14.202206125,13.045075401074218,14.289946125Q12.926769301074218,14.377688125,12.80430030107422,14.459519125Q12.681831401074218,14.541350125,12.555495301074219,14.617074125Q12.429159201074219,14.692797125,12.29926010107422,14.762230125Q12.169359201074219,14.831663125,12.036209101074219,14.894638125Q11.903059001074219,14.957613125,11.76697920107422,15.013979125Q11.630899401074219,15.070345125,11.49221800107422,15.119966125Q11.35353610107422,15.169588125,11.212587401074218,15.212345125Q11.071637601074219,15.255100125,10.92875960107422,15.290890125Q10.785882001074219,15.326678125,10.641420401074217,15.355413125Q10.496958701074218,15.384149125,10.351261601074219,15.405761125Q10.205564501074218,15.427374125,10.058981901074219,15.441811125Q9.912399301074219,15.456248125,9.76528450107422,15.463476125Q9.618170301074219,15.470703125,9.470878601074219,15.470703125Q9.32358650107422,15.470703125,9.176471701074219,15.463475125Q9.029357901074219,15.456248125,8.882775301074219,15.441811125Q8.73619270107422,15.427374125,8.590495101074218,15.405762125Q8.44479750107422,15.384149125,8.300335901074218,15.355413125Q8.155874301074219,15.326678125,8.012996701074218,15.290890125Q7.870119601074219,15.255100125,7.729170301074219,15.212345125Q7.588220601074219,15.169588125,7.449539201074218,15.119966125Q7.310857501074219,15.070345125,7.174777701074219,15.013979125Q7.038698201074219,14.957613125,6.905547901074218,14.894638125Q6.772397801074218,14.831663125,6.642498001074219,14.762230125Q6.5125983010742186,14.692797125,6.386261901074219,14.617073125Q6.259925601074219,14.541350125,6.137456901074218,14.459519125Q6.014988401074219,14.377688125,5.896682501074219,14.289947125Q5.778376601074219,14.202206125,5.664518801074219,14.108765125Q5.5506606010742185,14.015325125,5.4415247010742185,13.916410125Q5.332388901074219,13.817495125,5.228237901074219,13.713343125Q5.124086901074219,13.609193125,5.025171901074219,13.500057125Q4.926256801074219,13.390921625,4.832815901074219,13.277064325Q4.7393749010742185,13.163206125,4.651633401074219,13.044899925Q4.563891601074219,12.926593825,4.482060801074219,12.804124825Q4.400229931074219,12.681655925,4.324506821074219,12.555319825Q4.248783831074219,12.428983725,4.179350971074219,12.299084625Q4.109918121074219,12.169183725,4.046942831074219,12.036033625Q3.9839674810742185,11.902883525,3.9276013710742186,11.766803725Q3.8712352510742187,11.630723925,3.821614201074219,11.492042525Q3.771993101074219,11.353360625,3.729236571074219,11.212411925Q3.6864800410742187,11.071462125,3.6506910610742187,10.928584125Q3.6149020910742187,10.785706525,3.5861669010742188,10.641244924999999Q3.5574317130742186,10.496783225,3.5358195380742186,10.351086125Q3.5142073520742185,10.205389024999999,3.499770239074219,10.058806425Q3.4853331250742188,9.912223825,3.4781058630742185,9.765109025000001Q3.4708786010742188,9.617994825,3.4708786010742188,9.470703125Q3.4708786010742188,9.323411025,3.4781058630742185,9.176296225Q3.4853331250742188,9.029182425,3.499770239074219,8.882599825Q3.5142073520742185,8.736017225000001,3.535819530074219,8.590319625Q3.5574317130742186,8.444622025000001,3.5861669010742188,8.300160425Q3.6149020910742187,8.155698825,3.6506910610742187,8.012821225Q3.6864800410742187,7.869944125,3.729236571074219,7.728994825Q3.771993101074219,7.588045125,3.8216141710742186,7.4493637249999995Q3.8712352510742187,7.310682025,3.9276013710742186,7.174602225Q3.9839674810742185,7.038522725,4.046942831074219,6.9053724249999995Q4.109918181074219,6.7722223249999995,4.179351031074219,6.642322525Q4.248783891074218,6.512422825,4.324507001074219,6.386086425Q4.400230051074219,6.259750125,4.4820609010742185,6.137281424999999Q4.563891901074219,6.014812925,4.651633401074219,5.896507025Q4.739375001074219,5.778201125,4.832815901074219,5.664343325Q4.926256801074219,5.550485125,5.025171801074219,5.441349225Q5.124086901074219,5.332213425,5.228237901074219,5.228062425Q5.332388901074219,5.123911425,5.4415247010742185,5.024996425Q5.5506606010742185,4.926081325,5.664518801074219,4.832640425Q5.778376601074219,4.739199425,5.896682501074219,4.651457925Q6.014988401074219,4.563716125,6.137456901074218,4.481885325Q6.259925601074219,4.400054455,6.386261901074219,4.324331345Q6.512598501074219,4.248608355,6.642498501074218,4.179175495Q6.772398001074219,4.109742645,6.905548101074219,4.046767355Q7.038698201074219,3.9837920049999997,7.174777701074219,3.927425895Q7.310857501074219,3.871059775,7.449539201074218,3.821438725Q7.588220601074219,3.771817625,7.729170301074219,3.729061095Q7.870119601074219,3.686304565,8.01299710107422,3.650515585Q8.155874701074218,3.614726615,8.300336401074219,3.585991425Q8.44479750107422,3.557256237,8.590495101074218,3.535644062Q8.73619270107422,3.5140318759999998,8.882775301074219,3.499594763Q9.029357901074219,3.485157649,9.176471701074219,3.477930387Q9.32358650107422,3.470703125,9.470878601074219,3.470703125Q9.618170301074219,3.470703125,9.765285001074218,3.477930387Q9.912399301074219,3.485157649,10.058981901074219,3.499594763Q10.205564501074218,3.5140318759999998,10.351261101074218,3.535644054Q10.496958701074218,3.557256237,10.641420401074217,3.585991425Q10.785882001074219,3.614726615,10.928760101074218,3.650515585Q11.071637201074218,3.686304565,11.212586901074218,3.729061095Q11.353535701074218,3.771817625,11.49221710107422,3.821438695Q11.630898501074219,3.871059775,11.766978301074218,3.927425895Q11.903058101074219,3.9837920049999997,12.036209101074219,4.046767355Q12.169359201074219,4.109742705,12.299259201074218,4.1791755550000005Q12.429159201074219,4.248608415,12.555495301074219,4.324331525Q12.681831401074218,4.400054575,12.80429940107422,4.481885425Q12.926768301074219,4.563716425,13.045073501074219,4.651457925Q13.163379701074218,4.739199525,13.27723790107422,4.832640425Q13.391095201074219,4.926081325,13.500230601074218,5.024996325Q13.609367601074219,5.123911425,13.713518601074218,5.228062425Q13.81766860107422,5.332213425,13.916584601074218,5.441349225Q14.015499601074218,5.550485125,14.108940601074218,5.664343325Q14.202381601074219,5.778201125,14.290121601074219,5.896507025Q14.37786360107422,6.014812925,14.459694601074219,6.137281424999999Q14.541525601074218,6.259750125,14.617249601074219,6.386086425Q14.692972601074219,6.512423025,14.762405601074219,6.642323025Q14.83183860107422,6.772222525,14.894813601074219,6.905372625Q14.957788601074219,7.038522725,15.01415460107422,7.174602225Q15.070520601074218,7.310682025,15.120141601074218,7.4493637249999995Q15.16976360107422,7.588045125,15.21252060107422,7.728994825Q15.255275601074219,7.869944125,15.29106560107422,8.012821625Q15.32685360107422,8.155699225,15.355588601074219,8.300160925Q15.38432460107422,8.444622025000001,15.405936601074218,8.590319625Q15.427549601074219,8.736017225000001,15.441986601074218,8.882599825Q15.456423601074219,9.029182425,15.463651601074218,9.176296225Q15.470878601074219,9.323411025,15.470878601074219,9.470703125ZM14.970878601074219,9.470703125Q14.970878601074219,9.335685224999999,14.964254601074218,9.200830425Q14.957629601074219,9.065975625,14.944394601074219,8.931608725Q14.931160601074218,8.797241225,14.91134960107422,8.663684825Q14.891538601074219,8.530128925,14.865197601074218,8.397706025Q14.83885660107422,8.265282625000001,14.806050601074219,8.134311725Q14.773243601074219,8.003340725000001,14.73405060107422,7.874137425Q14.69485660107422,7.744933625,14.649370601074219,7.617808825Q14.603884601074219,7.490683525,14.552215601074218,7.365943925Q14.500547601074219,7.241204025,14.442819601074218,7.119149725Q14.385091601074219,6.997095625,14.321445601074219,6.878020725Q14.257799601074218,6.758945925,14.188384601074219,6.6431379249999996Q14.11897260107422,6.527329425,14.043960601074218,6.415066725Q13.968948601074219,6.302804025,13.888519601074218,6.194356925Q13.808090601074218,6.085909825,13.722435601074219,5.981540225Q13.636781601074219,5.877170125,13.54610960107422,5.7771289249999995Q13.455436701074218,5.677087525,13.359965301074219,5.5816159249999995Q13.26449390107422,5.486144025,13.16445160107422,5.395472025Q13.064411201074218,5.304799925,12.960041001074218,5.219145725Q12.85567090107422,5.133491525,12.747223901074218,5.053061725Q12.638776801074219,4.972631925,12.526514101074218,4.897620325Q12.414251301074218,4.822608725,12.298442801074218,4.753195725Q12.18263440107422,4.683783025,12.06356050107422,4.6201362249999995Q11.94448660107422,4.5564894250000005,11.822431601074218,4.4987620249999996Q11.700376501074219,4.4410346149999995,11.575636901074219,4.389365675Q11.45089720107422,4.337696795,11.32377240107422,4.292210815Q11.196647601074218,4.246724725,11.067444301074218,4.207531275Q10.938241001074218,4.168337765,10.807269601074218,4.135531245Q10.676298101074218,4.102724675,10.543875201074218,4.076384065Q10.411452301074219,4.050043465,10.27789640107422,4.030232315Q10.144340501074218,4.0104211549999995,10.009973001074219,3.997187135Q9.87560560107422,3.9839531150000003,9.740750301074218,3.977328125Q9.605896001074218,3.970703125,9.470878601074219,3.970703125Q9.335860701074218,3.970703125,9.201005901074218,3.977328125Q9.066151101074219,3.9839531150000003,8.931784201074219,3.997187135Q8.79741670107422,4.0104211549999995,8.66386030107422,4.030232315Q8.530304401074218,4.050043465,8.397881501074218,4.076384065Q8.26545810107422,4.102724615,8.134487201074219,4.135531125Q8.00351620107422,4.168337705,7.8743129010742186,4.207531215Q7.745109101074219,4.246724665,7.617984301074219,4.292210695Q7.490859001074218,4.337696675,7.366119401074219,4.389365555Q7.241379501074219,4.441034495,7.1193252010742185,4.498761925Q6.997271101074219,4.556489225,6.878196201074219,4.620136125Q6.759121401074219,4.683782825,6.643313401074218,4.753195625Q6.527504901074218,4.822608425,6.415242201074219,4.897620225Q6.302979501074219,4.972631825,6.194532401074219,5.053061625Q6.086085301074219,5.133491425,5.981715701074219,5.2191456249999995Q5.877345601074219,5.304799825,5.777304401074218,5.3954718249999996Q5.677263001074219,5.486144025,5.581791401074218,5.581615725Q5.4863195010742185,5.6770873250000005,5.395647501074219,5.777128725Q5.304975401074219,5.877170125,5.2193212010742185,5.981540225Q5.133667001074219,6.085909825,5.053237201074219,6.194356925Q4.972807401074219,6.302804025,4.897795801074219,6.415066725Q4.822784201074219,6.527329425,4.753371201074219,6.6431379249999996Q4.683958501074219,6.758946225,4.620311701074218,6.878021025Q4.556664901074219,6.997095625,4.498937501074218,7.119149725Q4.441210031074219,7.241204025,4.389541091074219,7.365943925Q4.337872151074219,7.490683525,4.292386111074219,7.617808325Q4.246900141074219,7.744933625,4.207706691074219,7.874137425Q4.168513181074219,8.003340725000001,4.135706661074218,8.134311725Q4.102900091074218,8.265282625000001,4.076559541074219,8.397706025Q4.050218941074219,8.530128925,4.030407791074219,8.663684825Q4.010596631074218,8.797241225,3.9973626110742186,8.931608725Q3.984128591074219,9.065975625,3.977503601074219,9.200830425Q3.9708786010742188,9.335685224999999,3.9708786010742188,9.470703125Q3.9708786010742188,9.605720524999999,3.977503601074219,9.740575325Q3.984128591074219,9.875430125000001,3.9973626110742186,10.009797525Q4.010596631074218,10.144165025,4.030407791074219,10.277720425Q4.050218881074219,10.411276325,4.076559481074218,10.543699225000001Q4.102900031074219,10.676122625,4.135706601074219,10.807093625Q4.168513181074219,10.938065025,4.207706631074219,11.067268825Q4.246900081074219,11.196472125,4.292386171074218,11.323596925Q4.337872151074219,11.450721725000001,4.389541031074219,11.575461425Q4.441209971074219,11.700201025,4.498937401074219,11.822256125Q4.556664701074219,11.944311125,4.620311601074219,12.063385025Q4.6839583010742185,12.182458925,4.753371101074219,12.298267325Q4.822783901074219,12.414075825,4.897795701074219,12.526338625Q4.972807301074218,12.638601325,5.0532371010742185,12.747048425Q5.133666901074219,12.855495425,5.219321101074218,12.959865525Q5.304975301074219,13.064235725,5.395647301074218,13.164276125Q5.4863195010742185,13.264318425,5.5817912010742186,13.359789825Q5.677262801074219,13.455261225,5.777304201074219,13.545934125Q5.877345601074219,13.636606125,5.981715701074219,13.722260125Q6.086085301074219,13.807915125,6.194532401074219,13.888344125Q6.302979501074219,13.968773125,6.415242201074219,14.043785125Q6.527504901074218,14.118797125,6.643313401074218,14.188210125Q6.759121701074219,14.257624125,6.8781965010742185,14.321271125Q6.997271101074219,14.384917125,7.1193252010742185,14.442644125Q7.241379501074219,14.500372125,7.366119401074219,14.552040125Q7.490859001074218,14.603709125,7.617983801074219,14.649195125Q7.745109101074219,14.694681125,7.8743129010742186,14.733875125Q8.00351620107422,14.773069125,8.134487201074219,14.805876125Q8.26545810107422,14.838682125,8.397881501074218,14.865023125Q8.530304401074218,14.891363125,8.66386030107422,14.911175125Q8.79741670107422,14.930985125,8.931784201074219,14.944219125Q9.066151101074219,14.957453125,9.201005901074218,14.964078125Q9.335860701074218,14.970703125,9.470878601074219,14.970703125Q9.605896001074218,14.970703125,9.740750801074219,14.964078125Q9.87560560107422,14.957453125,10.009973001074219,14.944219125Q10.144340501074218,14.930985125,10.277895901074219,14.911174125Q10.411451801074218,14.891363125,10.54387470107422,14.865022125Q10.676298101074218,14.838681125,10.807269101074219,14.805875125Q10.938240501074219,14.773068125,11.067444301074218,14.733875125Q11.196647601074218,14.694681125,11.32377240107422,14.649195125Q11.45089720107422,14.603709125,11.575636901074219,14.552040125Q11.700376501074219,14.500372125,11.822431601074218,14.442644125Q11.94448660107422,14.384916125,12.06356050107422,14.321270125Q12.18263440107422,14.257624125,12.298442801074218,14.188209125Q12.414251301074218,14.118797125,12.526514101074218,14.043785125Q12.638776801074219,13.968773125,12.747223901074218,13.888344125Q12.85567090107422,13.807915125,12.960041001074218,13.722260125Q13.064411201074218,13.636606125,13.16445160107422,13.545934125Q13.26449390107422,13.455261225,13.359965301074219,13.359789825Q13.455436701074218,13.264318425,13.54610960107422,13.164276125Q13.636781601074219,13.064235725,13.722435601074219,12.959865525Q13.808090601074218,12.855495425,13.888519601074218,12.747048425Q13.968948601074219,12.638601325,14.043960601074218,12.526338625Q14.11897260107422,12.414075825,14.188385601074218,12.298267325Q14.257799601074218,12.182458925,14.32144660107422,12.063385025Q14.385092601074218,11.944311125,14.442819601074218,11.822256125Q14.500547601074219,11.700201025,14.552215601074218,11.575461425Q14.603884601074219,11.450721725000001,14.649370601074219,11.323596925Q14.69485660107422,11.196472125,14.73405060107422,11.067268825Q14.773244601074218,10.938065524999999,14.806051601074218,10.807094124999999Q14.838857601074219,10.676122625,14.86519860107422,10.543699725Q14.891538601074219,10.411276825,14.911350601074219,10.277720925Q14.931160601074218,10.144165025,14.944394601074219,10.009797525Q14.957629601074219,9.875430125000001,14.964254601074218,9.740574825Q14.970878601074219,9.605720524999999,14.970878601074219,9.470703125Z" fill="url(#master_svg1_2371_18590)" fill-opacity="0.7200000286102295"/></g><g><ellipse cx="9.471027374267578" cy="9.470785140991211" rx="4.971029281616211" ry="4.971029281616211" fill="url(#master_svg2_2371_18557)" fill-opacity="0.30000001192092896"/><ellipse cx="9.471027374267578" cy="9.470785140991211" rx="4.971029281616211" ry="4.971029281616211" fill="url(#master_svg3_2371_18558)" fill-opacity="0.20000000298023224"/><path d="M14.442056692651366,9.470785159375Q14.442056692651366,9.592817259375,14.436068492651367,9.714702159375001Q14.430080392651368,9.836586959375001,14.418119392651366,9.958031659375Q14.406158492651366,10.079475359375,14.388252292651368,10.200186759375Q14.370346092651367,10.320897559375,14.346539492651367,10.440584659375Q14.322732892651366,10.560272259375001,14.293081292651367,10.678647059374999Q14.263429592651367,10.797021859375,14.228006392651368,10.913799259375Q14.192581192651367,11.030576259375,14.151470192651367,11.145474459375Q14.110358192651367,11.260372659375001,14.063658692651368,11.373115559375Q14.016958192651368,11.485858459374999,13.964783692651368,11.596174259375001Q13.912608192651367,11.706489559375001,13.855083492651367,11.814112159375Q13.797557792651368,11.921734359375,13.734821292651366,12.026404359375Q13.672083892651367,12.131073959375,13.604286192651367,12.232540159374999Q13.536489492651366,12.334005859375,13.463794692651367,12.432023059375Q13.391099892651367,12.530040759375,13.313684492651367,12.624372459375Q13.236268092651367,12.718704259375,13.154316892651368,12.809123959375Q13.072364792651367,12.899543759375,12.986075392651367,12.985833159375Q12.899785992651367,13.072122559375,12.809366192651368,13.154073759375Q12.718946492651368,13.236026759375,12.624613792651367,13.313443159375Q12.530281992651368,13.390858659375,12.432264792651367,13.463552459375Q12.334248092651368,13.536247259375,12.232782392651366,13.604043959375Q12.131316192651367,13.671841659375,12.026646592651367,13.734578159375Q11.921976092651366,13.797315559375,11.814353992651366,13.854841259375Q11.706731292651368,13.912365959375,11.596415492651367,13.964541459375Q11.486100192651367,14.016715959375,11.373357292651367,14.063416459375Q11.260614392651366,14.110115959375,11.145716192651367,14.151227959375Q11.030817992651368,14.192338959375,10.914040992651367,14.227764159375Q10.797263592651367,14.263187359375,10.678888792651367,14.292839059375Q10.560513992651368,14.322490659375,10.440826892651367,14.346297259375Q10.321139792651367,14.370103859375,10.200428992651368,14.388010059375Q10.079717592651367,14.405916259375,9.958273392651368,14.417878159375Q9.836829192651368,14.429838159375,9.714943892651366,14.435826259375Q9.593059492651367,14.441814459375,9.471027392651367,14.441814459375Q9.348995192651367,14.441814459375,9.227109892651367,14.435826259375Q9.105225092651366,14.429838159375,8.983780892651367,14.417877159375Q8.862336192651366,14.405916259375,8.741625292651367,14.388010059375Q8.620914492651366,14.370103859375,8.501227392651368,14.346297259375Q8.381540292651367,14.322490659375,8.263165492651368,14.292839059375Q8.144790692651368,14.263187359375,8.028013692651367,14.227764159375Q7.911236292651367,14.192338959375,7.796337592651367,14.151227959375Q7.681439392651367,14.110115959375,7.568696492651368,14.063416459375Q7.455953592651367,14.016715959375,7.345638292651367,13.964541459375Q7.235322692651367,13.912365959375,7.127700292651367,13.854841259375Q7.020077692651367,13.797315559375,6.9154073926513675,13.734579059375Q6.810737092651367,13.671841659375,6.709271192651367,13.604043959375Q6.607805292651367,13.536247259375,6.509788492651367,13.463552459375Q6.411771492651367,13.390857659375,6.317439692651368,13.313442259375Q6.223107692651367,13.236025859375,6.132688092651367,13.154074659375Q6.042268292651367,13.072122559375,5.955978792651367,12.985833159375Q5.869689192651367,12.899543759375,5.787737592651367,12.809123959375Q5.705785992651367,12.718704259375,5.628369792651367,12.624371559375Q5.5509534926513675,12.530039759375,5.478259142651368,12.432022559375Q5.405564782651367,12.334005859375,5.337767482651367,12.232540159374999Q5.269970182651367,12.131073959375,5.207233252651367,12.026404359375Q5.144496322651367,11.921733859375,5.086970922651367,11.814111759374999Q5.029445412651367,11.706489059375,4.9772700626513675,11.596173259375Q4.925094692651367,11.485857959375,4.878395112651367,11.373115059375Q4.831695522651367,11.260372159374999,4.790584202651367,11.145473959375Q4.749472912651367,11.030575759375001,4.714048922651367,10.913798759375Q4.678624932651367,10.797021359375,4.648973582651367,10.678646559375Q4.619322252651367,10.560271759375,4.595515012651367,10.440584659375Q4.571707770651368,10.320897559375,4.553801968651367,10.200186759375Q4.535896170651367,10.079475359375,4.523934954651367,9.958031159375Q4.511973735651368,9.836586959375001,4.505985914251367,9.714701659374999Q4.499998092651367,9.592817259375,4.499998092651367,9.470785159375Q4.499998092651367,9.348752959375,4.505985914251367,9.226867659375Q4.511973735651368,9.104982859375,4.523934954651367,8.983538659375Q4.535896170651367,8.862093959374999,4.553801968651367,8.741383059375Q4.571707770651368,8.620672259374999,4.595515012651367,8.500985159375Q4.619322252651367,8.381298059375,4.648973582651367,8.262923259375Q4.678624932651367,8.144548459375,4.714048922651367,8.027771459375Q4.749472912651367,7.910994059375,4.790584202651367,7.796095359375Q4.831695522651367,7.6811971593749995,4.878395112651367,7.568454259375001Q4.925094692651367,7.455711359375,4.9772700626513675,7.345396059375Q5.029445412651367,7.235080459375,5.086970862651367,7.127458059375Q5.144496322651367,7.019835459375,5.207233252651367,6.915165159375Q5.269970182651367,6.810494859375,5.337767482651367,6.709028959375Q5.405564782651367,6.607563059375,5.478259202651367,6.509546259375Q5.5509534926513675,6.4115292593749995,5.628369792651367,6.317197459375Q5.705785992651367,6.222865459375,5.787737592651367,6.132445859375Q5.869689192651367,6.042026059375,5.955978792651367,5.955736559375Q6.042268292651367,5.869446959375,6.132688092651367,5.787495359375Q6.223107792651367,5.705543759375,6.317439792651367,5.628127559375Q6.411771792651367,5.550711259375,6.509788492651367,5.478016909375Q6.607805692651367,5.405322549375,6.709271392651367,5.337525249375Q6.810737092651367,5.2697279493749996,6.9154073926513675,5.206991019375Q7.020077692651367,5.144254089375,7.127700292651367,5.086728689375Q7.235322692651367,5.029203179375,7.345638292651367,4.977027829375Q7.455953592651367,4.924852459375,7.568696492651368,4.8781528793749995Q7.681439392651367,4.831453289375,7.796337592651367,4.790341969375Q7.911236292651367,4.749230679375,8.028013492651368,4.713806689375Q8.144790692651368,4.678382699375,8.263165492651368,4.648731349375Q8.381540292651367,4.619080019375,8.501227392651368,4.595272779375Q8.620914492651366,4.571465537375,8.741625292651367,4.553559735375Q8.862336592651367,4.535653937375,8.983781292651368,4.523692721375Q9.105225592651367,4.511731502375,9.227109892651367,4.505743680975Q9.348995192651367,4.499755859375,9.471027392651367,4.499755859375Q9.593059492651367,4.499755859375,9.714944392651368,4.505743680975Q9.836829192651368,4.511731502375,9.958273892651366,4.523692721375Q10.079717592651367,4.535653937375,10.200428992651368,4.553559735375Q10.321139792651367,4.571465537375,10.440826892651367,4.595272779375Q10.560514492651368,4.619080019375,10.678889292651366,4.648731349375Q10.797264092651368,4.678382699375,10.914041492651368,4.713806689375Q11.030818492651367,4.749230679375,11.145716692651368,4.790341969375Q11.260614892651368,4.831453289375,11.373357792651367,4.8781528793749995Q11.486100692651366,4.924852459375,11.596416492651368,4.977027829375Q11.706731792651368,5.029203179375,11.814354392651367,5.086728629375Q11.921976592651367,5.144254089375,12.026646592651367,5.206991019375Q12.131316192651367,5.2697279493749996,12.232782392651366,5.337525249375Q12.334248092651368,5.405322549375,12.432265292651367,5.478016969375Q12.530282992651367,5.550711259375,12.624614692651367,5.628127559375Q12.718946492651368,5.705543759375,12.809366192651368,5.787495359375Q12.899785992651367,5.869446959375,12.986075392651367,5.955736559375Q13.072364792651367,6.042026059375,13.154315992651368,6.132445859375Q13.236268992651366,6.222865559375,13.313685392651367,6.317197559375Q13.391100892651368,6.4115295593749995,13.463794692651367,6.509546259375Q13.536489492651366,6.607563459375,13.604286192651367,6.7090291593749996Q13.672083892651367,6.810494859375,13.734820392651367,6.915165159375Q13.797557792651368,7.019835459375,13.855083492651367,7.127458059375Q13.912608192651367,7.235080459375,13.964783692651368,7.345396059375Q14.016958192651368,7.455711359375,14.063658692651368,7.568454259375001Q14.110358192651367,7.6811971593749995,14.151470192651367,7.796095359375Q14.192581192651367,7.910994059375,14.228006392651368,8.027771259375001Q14.263429592651367,8.144548459375,14.293081292651367,8.262923259375Q14.322732892651366,8.381298059375,14.346539492651367,8.500985159375Q14.370346092651367,8.620672259374999,14.388252292651368,8.741383059375Q14.406158492651366,8.862094359375,14.418120392651367,8.983539059375001Q14.430080392651368,9.104983359375,14.436068492651367,9.226867659375Q14.442056692651366,9.348752959375,14.442056692651366,9.470785159375ZM13.442056692651366,9.470785159375Q13.442056692651366,9.275701559375001,13.422935492651368,9.081556359375Q13.403814292651367,8.887411559375,13.365755092651368,8.696075459374999Q13.327695892651366,8.504739759375,13.271065692651367,8.318056059375Q13.214435592651368,8.131371959375,13.139780092651367,7.951137559375001Q13.065125492651367,7.770903559375,12.973163592651368,7.598854559375Q12.881200792651367,7.426805959375001,12.772817592651368,7.264599059375Q12.664434392651367,7.102392659375,12.540674192651368,6.951590759375Q12.416913992651367,6.800788659375,12.278968792651368,6.662843259375Q12.141023592651367,6.5248980593749994,11.990221492651367,6.401137859375Q11.839419392651367,6.277377759375,11.677212192651368,6.1689946593750005Q11.515006092651367,6.060611859375,11.342957492651367,5.968649859375Q11.170908892651367,5.876687859375,10.990673992651367,5.802032359375Q10.810440092651367,5.727376959375,10.623756392651368,5.670747059375Q10.437072792651367,5.6141171593750006,10.245736592651367,5.576058059375Q10.054401392651368,5.5379991593749995,9.860256692651367,5.518877459375Q9.666111992651366,5.499755859375,9.471027392651367,5.499755859375Q9.275943792651368,5.499755859375,9.081798592651367,5.518877459375Q8.887653792651367,5.5379991593749995,8.696317692651366,5.576058059375Q8.504981992651366,5.6141171593750006,8.318298292651367,5.670747059375Q8.131614192651368,5.727376959375,7.951379792651368,5.802032359375Q7.771145792651367,5.876687859375,7.599096792651367,5.968649859375Q7.427048192651368,6.0606119593750005,7.264841292651367,6.168994759375Q7.102634892651367,6.277377859375,6.951832992651367,6.401137859375Q6.801030892651367,6.5248980593749994,6.663085492651367,6.662843259375Q6.525140292651367,6.800788659375,6.401380092651367,6.951590559375Q6.277619992651367,7.102392659375,6.169236892651368,7.264599059375Q6.060854092651367,7.426805959375001,5.968892092651367,7.598854559375Q5.876930092651367,7.770903559375,5.802274592651367,7.951137559375001Q5.7276191926513675,8.131371959375,5.670989292651367,8.318056059375Q5.614359392651368,8.504739759375,5.576300192651367,8.696075459374999Q5.538241292651367,8.887411559375,5.519119692651367,9.081556359375Q5.499998092651367,9.275701559375001,5.499998092651367,9.470785159375Q5.499998092651367,9.665869759375,5.519119692651367,9.860014459375Q5.538241292651367,10.054159159375,5.576300192651367,10.245493859375Q5.6143592926513675,10.436830059375,5.670989192651367,10.623514159375Q5.7276191926513675,10.810197859375,5.802274492651367,10.990431759375Q5.876929992651367,11.170666659375,5.968892092651367,11.342715259375Q6.060854092651367,11.514763859375,6.169236992651367,11.676970459375Q6.277620092651367,11.839177159375,6.401380092651367,11.989979259375Q6.525140292651367,12.140781359375,6.663085492651367,12.278726559375Q6.801030892651367,12.416671759375,6.951832792651367,12.540431959375Q7.102634892651367,12.664192159375,7.264841292651367,12.772575359375Q7.427048192651368,12.880958559375,7.599096792651367,12.972921359375Q7.771145792651367,13.064883259375,7.951379792651368,13.139537859375Q8.131614192651368,13.214193359375,8.318298292651367,13.270823459375Q8.504981992651366,13.327453659375,8.696317692651366,13.365512859375Q8.887653792651367,13.403572059375,9.081798592651367,13.422693259375Q9.275943792651368,13.441814459375,9.471027392651367,13.441814459375Q9.666111992651366,13.441814459375,9.860256692651367,13.422693259375Q10.054401392651368,13.403572059375,10.245736092651367,13.365512859375Q10.437072292651367,13.327453659375,10.623756392651368,13.270823459375Q10.810440092651367,13.214193359375,10.990673992651367,13.139537859375Q11.170908892651367,13.064883259375,11.342957492651367,12.972921359375Q11.515006092651367,12.880958559375,11.677212692651366,12.772575359375Q11.839419392651367,12.664192159375,11.990221492651367,12.540431959375Q12.141023592651367,12.416671759375,12.278968792651368,12.278726559375Q12.416913992651367,12.140781359375,12.540674192651368,11.989979259375Q12.664434392651367,11.839177159375,12.772817592651368,11.676969959375Q12.881200792651367,11.514763859375,12.973163592651368,11.342715259375Q13.065125492651367,11.170666659375,13.139780092651367,10.990431759375Q13.214435592651368,10.810197859375,13.271065692651367,10.623514159375Q13.327695892651366,10.436830559375,13.365755092651368,10.245494359375Q13.403814292651367,10.054159159375,13.422935492651368,9.860014459375Q13.442056692651366,9.665869759375,13.442056692651366,9.470785159375Z" fill="url(#master_svg4_2371_18560)" fill-opacity="1"/></g><g mask="url(#master_svg5_2378_39235)"><g transform="matrix(0.7105509042739868,-0.7036457657814026,0.7036457657814026,0.7105509042739868,-4.286930004095588,2.525324927681858)" filter="url(#master_svg6_2378_39236)"><ellipse cx="5.037788271903992" cy="9.43787133693695" rx="4.1117424964904785" ry="2.964481830596924" fill="url(#master_svg7_2371_18601)" fill-opacity="0.6800000071525574"/></g><g transform="matrix(0.6927398443222046,-0.7211875915527344,0.7211875915527344,0.6927398443222046,-3.754369219739857,4.141760325869939)" filter="url(#master_svg8_2378_39237)"><ellipse cx="5.477381229400635" cy="8.007963299751282" rx="2.493886709213257" ry="1.5310379266738892" fill="url(#master_svg9_2371_18594)" fill-opacity="1"/></g><g transform="matrix(0.80438631772995,-0.5941065549850464,0.5941065549850464,0.80438631772995,-6.1136279334492585,9.039593262917379)" filter="url(#master_svga_2378_39238)"><ellipse cx="12.398006677627563" cy="14.61969268321991" rx="1.727554440498352" ry="0.8159157037734985" fill="url(#master_svgb_2371_18597)" fill-opacity="0.4000000059604645"/></g></g><g mask="url(#master_svgc_2378_39240)"><g style="mix-blend-mode:overlay"><ellipse cx="7.83451509475708" cy="10.970703393220901" rx="7.227272987365723" ry="7.227272987365723" fill="url(#master_svgd_2371_18505)" fill-opacity="1" style="mix-blend-mode:overlay"/><ellipse cx="7.83451509475708" cy="10.970703393220901" rx="7.227272987365723" ry="7.227272987365723" fill="url(#master_svge_2371_18506)" fill-opacity="1" style="mix-blend-mode:overlay"/><ellipse cx="7.83451509475708" cy="10.970703393220901" rx="7.227272987365723" ry="7.227272987365723" fill="url(#master_svgf_2371_18507)" fill-opacity="1" style="mix-blend-mode:overlay"/><ellipse cx="7.83451509475708" cy="10.970703393220901" rx="7.227272987365723" ry="7.227272987365723" fill="url(#master_svgg_2371_18508)" fill-opacity="1" style="mix-blend-mode:overlay"/></g><g transform="matrix(0.845940351486206,-0.5332775115966797,0.5332775115966797,0.845940351486206,-2.5720465914582746,0.1801339377281579)" filter="url(#master_svgh_2378_39242)"><ellipse cx="4.983681678771973" cy="8.757946729660034" rx="5.957938194274902" ry="4.216309547424316" fill="#9EFF00" fill-opacity="0.30000001192092896"/></g></g><g filter="url(#master_svgi_2378_39243)"><path d="M9.665455792651368,4.694183959375C6.920031592651368,4.694183959375,4.694426192651367,6.919789359375001,4.694426192651367,9.665213559375001C4.694426192651367,10.988471059375,5.211458802651367,12.190969459375001,6.054527092651368,13.081708859375C5.0972082626513675,12.175625759375,4.499998092651367,10.892950559374999,4.499998092651367,9.470785159375C4.499998092651367,6.725361359375,6.7256035926513675,4.499755859375,9.471027392651367,4.499755859375C10.893192792651366,4.499755859375,12.175867992651368,5.096966029375,13.081951092651368,6.0542848593750005C12.191211692651368,5.211216569375,10.988713292651367,4.694183959375,9.665455792651368,4.694183959375Z" fill="url(#master_svgj_2371_18579)" fill-opacity="1"/></g><g><path d="M9.665455792651368,4.694183959375C6.920031592651368,4.694183959375,4.694426192651367,6.919789359375001,4.694426192651367,9.665213559375001C4.694426192651367,10.988471059375,5.211458802651367,12.190969459375001,6.054527092651368,13.081708859375C5.0972082626513675,12.175625759375,4.499998092651367,10.892950559374999,4.499998092651367,9.470785159375C4.499998092651367,6.725361359375,6.7256035926513675,4.499755859375,9.471027392651367,4.499755859375C10.893192792651366,4.499755859375,12.175867992651368,5.096966029375,13.081951092651368,6.0542848593750005C12.191211692651368,5.211216569375,10.988713292651367,4.694183959375,9.665455792651368,4.694183959375Z" fill="url(#master_svgk_2371_18563)" fill-opacity="1"/></g><g><path d="M9.665455792651368,4.694183959375C6.920031592651368,4.694183959375,4.694426192651367,6.919789359375001,4.694426192651367,9.665213559375001C4.694426192651367,10.988471059375,5.211458802651367,12.190969459375001,6.054527092651368,13.081708859375C5.0972082626513675,12.175625759375,4.499998092651367,10.892950559374999,4.499998092651367,9.470785159375C4.499998092651367,6.725361359375,6.7256035926513675,4.499755859375,9.471027392651367,4.499755859375C10.893192792651366,4.499755859375,12.175867992651368,5.096966029375,13.081951092651368,6.0542848593750005C12.191211692651368,5.211216569375,10.988713292651367,4.694183959375,9.665455792651368,4.694183959375Z" fill="url(#master_svgl_2371_18572)" fill-opacity="1"/></g><g><path d="M12.357697697781372,9.470642602923585Q12.357697697781372,9.612462502923584,12.343796997781372,9.753599602923584Q12.329896197781373,9.894736802923584,12.302227697781372,10.033831602923584Q12.274560197781373,10.172926902923583,12.233391997781371,10.308640002923584Q12.192224297781372,10.444353102923584,12.137951597781372,10.575377502923583Q12.083679397781372,10.706402302923584,12.016826397781372,10.831476202923584Q11.949972897781372,10.956550102923584,11.871181697781372,11.074469102923583Q11.792391097781373,11.192388502923585,11.702421897781372,11.302017202923583Q11.612451797781372,11.411645902923585,11.512169597781373,11.511927602923585Q11.411887897781373,11.612209802923584,11.302259197781371,11.702179902923584Q11.192630997781372,11.792149102923585,11.074711597781372,11.870939702923584Q10.956792597781373,11.949730902923584,10.831718697781373,12.016583902923584Q10.706644297781372,12.083437402923584,10.575619697781372,12.137709602923584Q10.444595597781372,12.191982302923584,10.308882197781372,12.233150002923583Q10.173168897781371,12.274318202923585,10.034073797781371,12.301985702923584Q9.894978797781372,12.329654202923585,9.753841897781372,12.343555002923583Q9.612704497781372,12.357455702923584,9.470884597781373,12.357455702923584Q9.329064597781372,12.357455702923584,9.187927497781372,12.343555002923583Q9.046790397781372,12.329654202923585,8.907695097781373,12.301985702923584Q8.768600197781371,12.274318202923585,8.632886897781372,12.233150002923583Q8.497173497781372,12.191982302923584,8.366148797781372,12.137709602923584Q8.235124397781373,12.083437402923584,8.110050197781373,12.016584402923584Q7.984976097781372,11.949730902923584,7.867057097781372,11.870939702923584Q7.749138097781372,11.792149102923585,7.639509697781373,11.702179902923584Q7.5298812977813725,11.612209802923584,7.429599347781372,11.511927602923585Q7.3293174477813725,11.411645902923585,7.239347817781372,11.302017202923583Q7.149378117781372,11.192389002923584,7.070587067781372,11.074469602923584Q6.991796137781372,10.956550602923585,6.924942607781372,10.831476702923585Q6.858089117781372,10.706402302923584,6.803816927781372,10.575377702923584Q6.749544767781372,10.444353602923584,6.708376597781372,10.308640202923584Q6.667208410781372,10.172926902923583,6.639540694781372,10.033831802923583Q6.611872983781372,9.894736802923584,6.597972190781372,9.753599902923584Q6.584071397781372,9.612462502923584,6.584071397781372,9.470642602923585Q6.584071397781372,9.328822602923584,6.597972190781372,9.187685502923584Q6.611872983781372,9.046548402923584,6.639540694781372,8.907453102923585Q6.667208410781372,8.768358202923583,6.708376587781372,8.632644902923584Q6.749544767781372,8.496931502923584,6.803816927781372,8.365906802923584Q6.858089117781372,8.234882402923585,6.924942607781372,8.109808202923585Q6.991796137781372,7.984734102923584,7.070587097781372,7.866815102923584Q7.149378117781372,7.748896102923584,7.239347817781372,7.6392677029235845Q7.3293174477813725,7.529639302923584,7.429599347781372,7.429357352923584Q7.5298812977813725,7.329075452923584,7.639509697781373,7.239105822923584Q7.749137997781372,7.149136122923584,7.867056997781372,7.070345072923584Q7.984976097781372,6.991554142923584,8.110050097781372,6.9247006129235835Q8.235124397781373,6.857847122923584,8.366148797781372,6.803574932923584Q8.497173497781372,6.749302772923584,8.632886897781372,6.708134602923584Q8.768600197781371,6.666966415923584,8.907695097781373,6.639298699923584Q9.046790397781372,6.611630988923584,9.187927497781372,6.597730195923584Q9.329064597781372,6.583829402923584,9.470884597781373,6.583829402923584Q9.612704497781372,6.583829402923584,9.753841597781372,6.597730195923584Q9.894978797781372,6.611630988923584,10.034073597781372,6.639298699923584Q10.173168897781371,6.666966415923584,10.308881997781372,6.708134592923584Q10.444595097781372,6.749302772923584,10.575619497781371,6.803574932923584Q10.706644297781372,6.857847122923584,10.831718197781372,6.9247006129235835Q10.956792097781372,6.991554142923584,11.074711097781371,7.070345102923584Q11.192630497781373,7.149136122923584,11.302259197781371,7.239105822923584Q11.411887897781373,7.329075452923584,11.512169597781373,7.429357352923584Q11.612451797781372,7.529639302923584,11.702421897781372,7.6392677029235845Q11.792391097781373,7.748896002923584,11.871181697781372,7.866815002923584Q11.949972897781372,7.984734102923584,12.016825897781372,8.109808102923584Q12.083679397781372,8.234882402923585,12.137951597781372,8.365906802923584Q12.192224297781372,8.496931502923584,12.233391997781371,8.632644902923584Q12.274560197781373,8.768358202923583,12.302227697781372,8.907453102923585Q12.329896197781373,9.046548402923584,12.343796997781372,9.187685502923584Q12.357697697781372,9.328822602923584,12.357697697781372,9.470642602923585ZM11.857697697781372,9.470642602923585Q11.857697697781372,9.353385902923584,11.846204997781372,9.236694102923584Q11.834711297781372,9.120001802923584,11.811835497781372,9.004998202923584Q11.788959697781372,8.889994602923585,11.754922197781372,8.777787202923584Q11.720884597781371,8.665579602923584,11.676011797781372,8.557248502923585Q11.631139997781371,8.448917602923585,11.575865497781372,8.345506502923584Q11.520590997781373,8.242095502923585,11.455446497781372,8.144600002923584Q11.390302897781371,8.047104802923585,11.31591629778137,7.956464202923584Q11.241529697781372,7.865823702923584,11.158616297781371,7.782910702923584Q11.075703397781371,7.699997902923584,10.98506279778137,7.625611102923584Q10.894421797781373,7.551224232923584,10.796926697781373,7.486079872923584Q10.699431697781371,7.420935632923584,10.596019997781372,7.3656612629235845Q10.492609297781371,7.310386892923584,10.384278097781372,7.265514672923584Q10.275947297781372,7.220642562923584,10.163739697781372,7.186604792923584Q10.051531997781371,7.152567032923584,9.936528397781371,7.129691362923584Q9.821525097781372,7.106815752923584,9.704833297781372,7.095322612923584Q9.588141197781372,7.083829402923584,9.470884597781373,7.083829402923584Q9.353627897781372,7.083829402923584,9.236936097781372,7.095322612923584Q9.120243797781372,7.106815752923584,9.005240197781372,7.129691362923584Q8.890236597781373,7.152567032923584,8.778029197781372,7.186604792923584Q8.665821597781372,7.220642562923584,8.557490497781373,7.265514672923584Q8.449159597781373,7.310386892923584,8.345748497781372,7.3656612629235845Q8.242337497781373,7.420935632923584,8.144841997781372,7.486079812923584Q8.047346797781373,7.551224172923584,7.956706197781372,7.625611102923584Q7.866065697781372,7.699997902923584,7.783152697781372,7.782910702923584Q7.700239897781372,7.865823702923584,7.625853097781372,7.9564643029235835Q7.551466227781372,8.047104802923585,7.486321867781372,8.144600002923584Q7.421177627781372,8.242095502923585,7.365903257781373,8.345506402923585Q7.310628887781372,8.448917602923585,7.265756667781372,8.557248502923585Q7.220884557781372,8.665579602923584,7.186846737781372,8.777787202923584Q7.152808907781372,8.889994602923585,7.129933297781372,9.004998202923584Q7.1070576877813725,9.120001802923584,7.095564607781372,9.236694102923584Q7.084071397781372,9.353385902923584,7.084071397781372,9.470642602923585Q7.084071397781372,9.587899202923584,7.095564607781372,9.704591002923584Q7.1070576877813725,9.821283102923584,7.129933297781372,9.936286402923583Q7.152808907781372,10.051290002923583,7.186846737781372,10.163497702923584Q7.220884497781372,10.275705302923583,7.2657566077813724,10.384036102923584Q7.310628767781372,10.492367302923583,7.365903197781372,10.595778502923583Q7.421177567781372,10.699189702923583,7.486321807781372,10.796684702923585Q7.551466167781372,10.894179802923585,7.625853097781372,10.984820802923583Q7.700239897781372,11.075461402923583,7.783152697781372,11.158374302923583Q7.866065697781372,11.241287702923584,7.956706297781372,11.315674302923583Q8.047346797781373,11.390060902923583,8.144841997781372,11.455205002923584Q8.242337497781373,11.520349002923584,8.345748397781373,11.575624002923584Q8.449159597781373,11.630898002923583,8.557490497781373,11.675769802923584Q8.665821597781372,11.720642602923583,8.778029197781372,11.754680202923584Q8.890236597781373,11.788717702923584,9.005240197781372,11.811593502923584Q9.120243797781372,11.834469302923583,9.236936097781372,11.845963002923584Q9.353627897781372,11.857455702923584,9.470884597781373,11.857455702923584Q9.588141197781372,11.857455702923584,9.704832997781372,11.845963002923584Q9.821525097781372,11.834469302923583,9.936528397781371,11.811593502923584Q10.051531997781371,11.788717702923584,10.163739697781372,11.754680202923584Q10.275947297781372,11.720642602923583,10.384278097781372,11.675769802923584Q10.492609297781371,11.630898002923583,10.596020497781371,11.575623502923584Q10.699431697781371,11.520349002923584,10.796926697781373,11.455204502923584Q10.894421797781373,11.390060902923583,10.98506279778137,11.315674302923583Q11.075703397781371,11.241287702923584,11.158616297781371,11.158374302923583Q11.241529697781372,11.075461402923583,11.31591629778137,10.984820802923583Q11.390302897781371,10.894179802923585,11.455446997781372,10.796684702923585Q11.520590997781373,10.699189702923583,11.575865997781372,10.595778002923584Q11.631139997781371,10.492367302923583,11.676011797781372,10.384036102923584Q11.720884597781371,10.275705302923583,11.754922197781372,10.163497702923584Q11.788959697781372,10.051290002923583,11.811835497781372,9.936286402923583Q11.834711297781372,9.821283102923584,11.846204997781372,9.704591302923584Q11.857697697781372,9.587899202923584,11.857697697781372,9.470642602923585Z" fill="url(#master_svgm_2371_18566)" fill-opacity="0.30000001192092896"/></g><g transform="matrix(0.9976324439048767,0.06877217441797256,-0.06877217441797256,0.9976324439048767,0.7315558365572059,-0.7213618379964934)" filter="url(#master_svgn_2378_39247)"><path d="M14.149789331854247,10.300920922231445C14.149582431854249,10.288637982231446,14.149309831854248,10.276355043231446,14.148983031854248,10.264116287231445C13.932146831854247,12.080754287231445,12.617569731854248,13.585767787231445,10.842505931854248,14.180827587231445C12.718232431854249,13.756977787231445,14.117579731854248,12.184894087231445,14.149789331854247,10.300920922231445Z" fill="url(#master_svgo_2371_18575)" fill-opacity="0.9300000071525574"/></g><g filter="url(#master_svgp_2378_39248)"><path d="M14.33478447593994,9.182595252990723C14.037058875939941,11.839225252990722,11.928046975939942,13.948154452990723,9.271393775939941,14.245751352990723C9.313227120939942,14.246788952990723,9.35519015793994,14.247307752990721,9.397271115939942,14.247307752990721C12.125045775939942,14.247307752990721,14.336353275939942,12.035988052990723,14.336353275939942,9.308189632990723C14.336353275939942,9.266214794990722,14.335822575939941,9.224334276990723,14.33478447593994,9.182595252990723Z" fill="url(#master_svgq_2371_18569)" fill-opacity="0.5"/></g><g transform="matrix(-1,0,0,-1,19.264022827148438,19.03116226196289)" filter="url(#master_svgr_2378_39249)"><path d="M14.513527913574219,9.515581130981445C14.22649571357422,12.076785530981445,12.19323871357422,14.109962430981446,9.632011413574219,14.396870130981444C9.67234212157422,14.397870030981444,9.71279787257422,14.398370730981444,9.753367293574218,14.398370730981444C12.383161513574219,14.398370730981444,14.515039413574218,12.266480930981444,14.515039413574218,9.636664200981444C14.515039413574218,9.596197075981445,14.514528313574218,9.555820900981445,14.513527913574219,9.515581130981445Z" fill="url(#master_svgs_2371_18413)" fill-opacity="0.6000000238418579"/></g><g transform="matrix(-1,0,0,-1,17.718158721923828,17.48494815826416)" filter="url(#master_svgt_2378_39250)"><path d="M12.194878360961914,8.74247407913208C11.998733760961914,10.492680879132081,10.609301560961914,11.88205837913208,8.859079360961914,12.07811717913208C8.886639471961914,12.07880087913208,8.914285026961915,12.07914277913208,8.942008256961914,12.07914277913208C10.739085760961913,12.07914277913208,12.195911160961915,10.62230957913208,12.195911160961915,8.82521654713208C12.195911160961915,8.79756322513208,12.195561360961914,8.76997204713208,12.194878360961914,8.74247407913208Z" fill="url(#master_svgu_2371_18554)" fill-opacity="1"/></g></g></g></svg>