<svg xmlns="http://www.w3.org/2000/svg" xmlns:xlink="http://www.w3.org/1999/xlink" fill="none" version="1.1" width="14" height="14" viewBox="0 0 14 14"><defs><clipPath id="master_svg0_2370_13080"><rect x="0" y="0" width="14" height="14" rx="0"/></clipPath></defs><g clip-path="url(#master_svg0_2370_13080)"><g><path d="M13.847572576171874,6.973857375C13.847572576171874,10.779028375,10.762869576171875,13.863730375,6.957699776171875,13.863730375C3.152529276171875,13.863730375,0.067840576171875,10.779027375,0.067840576171875,6.973857375C0.067840576171875,3.168687775,3.152529976171875,0.083984375,6.957699776171875,0.083984375C10.762869576171875,0.083984375,13.847573576171875,3.168687375,13.847572576171874,6.973857375ZM6.957699776171875,2.872623175C4.692653176171875,2.872623175,2.856479376171875,4.708810775,2.856479376171875,6.973844075C2.856479376171875,9.238877275,4.692666976171875,11.075064375,6.957699776171875,11.075064375C9.222732576171875,11.075064375,11.058934576171875,9.238903975,11.058934576171875,6.973857375C11.058934576171875,4.708810775,9.222745876171874,2.872623175,6.957699776171875,2.872623175ZM11.157071576171875,2.307222875C10.641490576171876,2.307222875,10.223528576171875,2.725185675,10.223528576171875,3.240765775C10.223528576171875,3.756345775,10.641490576171876,4.174308775,11.157071576171875,4.174308775C11.672651576171875,4.174308775,12.090614576171875,3.756345775,12.090614576171875,3.240765775C12.090614576171875,2.725185875,11.672651576171875,2.307222875,11.157071576171875,2.307222875ZM10.961044576171876,9.906160375C10.445464576171876,9.906160375,10.027501076171875,10.324122375,10.027501076171875,10.839702375C10.027501076171875,11.355282375,10.445464576171876,11.773245375,10.961044576171876,11.773245375C11.476623576171875,11.773245375,11.894586576171875,11.355282375,11.894586576171875,10.839702375C11.894586576171875,10.324122375,11.476623576171875,9.906160375,10.961044576171876,9.906160375ZM3.058262376171875,2.240845675C2.542682376171875,2.240845675,2.124719376171875,2.658808675,2.124719376171875,3.174388675C2.124719376171875,3.689969075,2.542682376171875,4.107931575,3.058262376171875,4.107931575C3.573842076171875,4.107931575,3.991805076171875,3.689969075,3.991805076171875,3.174388675C3.991805076171875,2.658808475,3.573842076171875,2.240845675,3.058262376171875,2.240845675ZM2.862235076171875,9.839783675C2.346655176171875,9.839783675,1.928692076171875,10.257745375,1.928692076171875,10.773326375C1.928692076171875,11.288906375,2.346655176171875,11.706869375,2.862235076171875,11.706869375C3.377815276171875,11.706869375,3.795778076171875,11.288906375,3.795778076171875,10.773326375C3.795778076171875,10.257745375,3.377815276171875,9.839783675,2.862235076171875,9.839783675Z" fill="currentColor" fill-opacity="1"/></g><g><path d="M7.595551996875,3.2409062725C7.595551996875,3.3065375725,7.542347396875,3.3597420125,7.476715996875,3.3597422225L6.542626396875,3.3597422225C6.476995196875,3.3597422225,6.423790696875,3.3065375725,6.423790696875,3.2409062725C6.423790696875,3.1752749685,6.476995196875,3.1220703125,6.542626396875,3.1220703125L7.476715996875,3.1220703125C7.542343096875,3.12205529213,7.595551996875,3.1752643285,7.595551996875,3.2409062725ZM7.595551996875,3.6517870425C7.595551996875,3.7174181324999997,7.542347396875,3.7706227925,7.476715996875,3.7706227925L6.542626396875,3.7706227925C6.476995196875,3.7706227925,6.423790696875,3.7174181324999997,6.423790696875,3.6517870425C6.423790696875,3.5861555325,6.476995196875,3.5329508825,6.542626396875,3.5329508825L7.476715996875,3.5329508825C7.542343096875,3.5329362724999998,7.595551996875,3.5861451025,7.595551996875,3.6517870425ZM7.595551996875,4.0854998225C7.595551496875,4.1511309125,7.542347396875,4.2043352125,7.476715996875,4.2043356124999995L6.542626396875,4.2043356124999995C6.476995196875,4.2043356124999995,6.423790696875,4.1511309125,6.423790696875,4.0854998225C6.423790696875,4.0198683125,6.476995196875,3.9666636625000002,6.542626396875,3.9666636625000002L7.476715996875,3.9666636625000002C7.542343096875,3.9666486425,7.595551996875,4.0198574625,7.595551996875,4.0854998225ZM7.595551996875,4.4963808125C7.595551996875,4.5620119125,7.542347396875,4.6152165125,7.476715996875,4.6152165125L6.542626396875,4.6152165125C6.476995196875,4.6152165125,6.423790696875,4.5620119125,6.423790696875,4.4963803124999995C6.423790696875,4.4307493125,6.476995196875,4.3775446124999995,6.542626396875,4.3775446124999995L7.476715996875,4.3775446124999995C7.542343096875,4.3775301125,7.595551996875,4.4307389125,7.595551996875,4.4963808125ZM7.595551996875,4.9186777125C7.595551996875,4.9843087125,7.542347396875,5.0375135125,7.476715996875,5.0375135125L6.542626396875,5.0375135125C6.476995196875,5.0375135125,6.423790696875,4.9843087125,6.423790696875,4.9186773125C6.423790696875,4.8530462125,6.476995196875,4.7998415125000005,6.542626396875,4.7998415125000005L7.476715996875,4.7998415125000005C7.542343096875,4.7998265125,7.595551996875,4.8530353125,7.595551996875,4.9186777125ZM7.595551996875,5.3295586125C7.595551996875,5.395189712500001,7.542347396875,5.4483943125,7.476715996875,5.4483943125L6.542626396875,5.4483943125C6.476995196875,5.4483948125,6.423790696875,5.3951902125,6.423790696875,5.3295586125C6.423790696875,5.2639274125,6.476995196875,5.2107229125,6.542626396875,5.2107224125L7.476715996875,5.2107224125C7.542343096875,5.2107074125,7.595551996875,5.2639162125,7.595551996875,5.3295586125ZM7.595551996875,5.763271312500001C7.595551496875,5.8289025125,7.542347396875,5.8821068125,7.476715996875,5.882107212499999L6.542626396875,5.882107212499999C6.476995196875,5.882107212499999,6.423790696875,5.8289025125,6.423790696875,5.7632711125C6.423790696875,5.6976399125,6.476995196875,5.6444354125,6.542626396875,5.6444354125L7.476715996875,5.6444354125C7.542343096875,5.644420112500001,7.595551996875,5.6976290125,7.595551996875,5.763271312500001ZM7.595551996875,6.1741524125C7.595551996875,6.2397835125,7.542347396875,6.2929883125,7.476715996875,6.2929883125L6.542626396875,6.2929883125C6.476995196875,6.2929883125,6.423790696875,6.2397835125,6.423790696875,6.1741524125C6.423790696875,6.1085210125,6.476995196875,6.0553162125,6.542626396875,6.0553162125L7.476715996875,6.0553162125C7.542343096875,6.0553017125,7.595551996875,6.1085105125000005,7.595551996875,6.1741524125ZM7.595551996875,7.7948570125C7.595551996875,7.8604879125,7.542347396875,7.9136925125,7.476715996875,7.9136934125L6.542626396875,7.9136934125C6.476866696875,7.9138741125,6.423461896875001,7.8606171125,6.423461896875001,7.7948570125C6.423461896875001,7.7290969125,6.476867196875,7.6758389125,6.542626396875,7.6760216125L7.476715996875,7.6760216125C7.542340796875,7.6760216125,7.595551996875,7.7292189125,7.595551996875,7.7948570125ZM7.595551996875,8.2057385125C7.595551996875,8.2713690125,7.542347396875,8.324574012500001,7.476715996875,8.3245745125L6.542626396875,8.3245745125C6.476994996875,8.3245745125,6.423790196875,8.271369912499999,6.423790196875,8.2057385125C6.423790196875,8.1401076125,6.476994996875,8.0869031125,6.542626396875,8.0869031125L7.476715996875,8.0869031125C7.542340796875,8.0869031125,7.595551996875,8.1401005125,7.595551996875,8.2057385125ZM7.595551996875,8.6394510125C7.595551996875,8.7050815125,7.542347396875,8.758286012500001,7.476715996875,8.758286912500001L6.542626396875,8.758286912500001C6.476994996875,8.758286912500001,6.423790196875,8.705082412500001,6.423790196875,8.6394510125C6.423790196875,8.5738201125,6.476994996875,8.5206156125,6.542626396875,8.5206156125L7.476715996875,8.5206156125C7.542340796875,8.5206156125,7.595551996875,8.5738125125,7.595551996875,8.6394510125ZM7.595551996875,9.0503321125C7.595551996875,9.1159630125,7.542347396875,9.1691675125,7.476715996875,9.1691685125L6.542626396875,9.1691685125C6.476994996875,9.1691685125,6.423790196875,9.1159639125,6.423790196875,9.0503321125C6.423790196875,8.9847016125,6.476994996875,8.9314971125,6.542626396875,8.9314971125L7.476715996875,8.9314971125C7.542340796875,8.9314971125,7.595551996875,8.9846940125,7.595551996875,9.0503321125ZM7.595551996875,9.4239840125C7.595551996875,9.489615412500001,7.542347396875,9.5428200125,7.476715996875,9.5428200125L6.542626396875,9.5428200125C6.476994996875,9.5428200125,6.423790196875,9.489615412500001,6.423790196875,9.4239840125C6.423790196875,9.3583526125,6.476995196875,9.3051476125,6.542626396875,9.3051486125L7.476715996875,9.3051486125C7.542343096875,9.3051343125,7.595551996875,9.3583431125,7.595551996875,9.4239840125ZM7.597876996875,9.7874513125C7.597876996875,9.8530826125,7.544671996875,9.9062872125,7.479040596875,9.9062872125L6.544951196875,9.9062872125C6.479319796875,9.9062872125,6.426114996875,9.8530826125,6.426114996875,9.7874513125C6.426114996875,9.7218203125,6.479319796875,9.6686158125,6.544951196875,9.6686158125L7.479040596875,9.6686158125C7.544665296875,9.6686158125,7.597876996875,9.7218270125,7.597876996875,9.7874513125ZM7.597876996875,10.1983452125C7.597876096875,10.2639780125,7.544671996875,10.3171816125,7.479040596875,10.3171816125L6.544951196875,10.3171816125C6.479319796875,10.3171816125,6.426114996875,10.2639780125,6.426114996875,10.1983452125C6.426114996875,10.1327147125,6.479319796875,10.0795107125,6.544951196875,10.0795107125L7.479040596875,10.0795107125C7.544668196875,10.0794954125,7.597876996875,10.1327047125,7.597876996875,10.1983452125ZM3.266052756875,6.3881035125C3.331684056875,6.3881039125,3.384888496875,6.4413080125,3.384888706875,6.5069392125L3.384888706875,7.4410291125C3.384888916875,7.5066604125,3.331684256875,7.5598650125,3.266052956875,7.5598650125C3.200421660875,7.5598650125,3.14721700549126,7.5066604125,3.147216796875,7.4410291125L3.147216796875,6.5069392125C3.147216796875,6.4413142125,3.200414150875,6.3881035125,3.266052756875,6.3881035125ZM3.676933286875,6.3881035125C3.742564436875,6.3881039125,3.795769096875,6.4413080125,3.795769096875,6.5069392125L3.795769096875,7.4410291125C3.795769096875,7.5066604125,3.742564436875,7.5598650125,3.676933286875,7.5598650125C3.611301806875,7.5598650125,3.558097156875,7.5066604125,3.558097156875,7.4410291125L3.558097156875,6.5069392125C3.558097156875,6.4413142125,3.611308066875,6.3881035125,3.676933286875,6.3881035125ZM4.110646486875,6.3881035125C4.176277996875,6.3881039125,4.2294826968749994,6.4413080125,4.229482296875,6.5069392125L4.229482296875,7.4410291125C4.229482296875,7.5066604125,4.176277596875,7.5598650125,4.110646126875,7.5598650125C4.045014976875,7.5598650125,3.991810316875,7.5066604125,3.991810316875,7.4410291125L3.991810316875,6.5069392125C3.991810316875,6.4413142125,4.045007466875,6.3881035125,4.110646486875,6.3881035125ZM4.521527096875,6.3881035125C4.587158196875,6.3881039125,4.640362896875,6.4413080125,4.640362896875,6.5069392125L4.640362896875,7.4410291125C4.640362896875,7.5066604125,4.587158196875,7.5598650125,4.521527096875,7.5598650125C4.455895496875,7.5598650125,4.402690896875,7.5066604125,4.402690896875,7.4410291125L4.402690896875,6.5069392125C4.402690896875,6.4413142125,4.455901896875,6.3881035125,4.521527096875,6.3881035125ZM4.943823896875,6.3881035125C5.009455096875,6.3881039125,5.062659696875,6.4413080125,5.062659696875,6.5069392125L5.062659696875,7.4410291125C5.062659696875,7.5066604125,5.009455096875,7.5598650125,4.943823896875,7.5598650125C4.878192396875,7.5598650125,4.824987796875,7.5066604125,4.824987796875,7.4410291125L4.824987796875,6.5069392125C4.824987796875,6.4413142125,4.878198696875,6.3881035125,4.943823896875,6.3881035125ZM5.3547186968750005,6.3881035125C5.420349796875,6.3881039125,5.4735543968750004,6.4413080125,5.4735543968750004,6.5069392125L5.4735543968750004,7.4410291125C5.4735543968750004,7.5066604125,5.420349796875,7.5598650125,5.3547186968750005,7.5598650125C5.289087296875,7.5598650125,5.235882496875,7.5066604125,5.235882496875,7.4410291125L5.235882496875,6.5069392125C5.2358674968750005,6.4413123125,5.289076296875,6.3881035125,5.3547186968750005,6.3881035125ZM5.788417796875001,6.3881035125C5.854048696875,6.3881039125,5.907253496875001,6.4413080125,5.907253496875001,6.5069392125L5.907253496875001,7.4410291125C5.907253496875001,7.5066604125,5.854048696875,7.5598650125,5.788417296875,7.5598650125C5.722786196875,7.5598650125,5.6695816968749995,7.5066604125,5.6695816968749995,7.4410291125L5.6695816968749995,6.5069392125C5.6695816968749995,6.4413142125,5.7227923968750005,6.3881035125,5.788417796875001,6.3881035125ZM6.199312496875001,6.3881035125C6.264943596875,6.3881039125,6.3181480968749995,6.4413080125,6.3181480968749995,6.5069392125L6.3181480968749995,7.4410291125C6.3181480968749995,7.5066604125,6.264943596875,7.5598650125,6.199312496875001,7.5598650125C6.133681096875,7.5598650125,6.080476296875,7.5066604125,6.080476296875,7.4410291125L6.080476296875,6.5069392125C6.080461296875,6.4413123125,6.133670096875,6.3881035125,6.199312496875001,6.3881035125ZM7.820017296875,6.3881035125C7.885648696875,6.3881039125,7.938853296875,6.4413080125,7.938853296875,6.5069392125L7.938853296875,7.4410291125C7.938853296875,7.5066595125,7.885648696875,7.5598640125,7.820017296875,7.5598640125C7.754385996875,7.5598640125,7.701181396875,7.5066595125,7.701181896875,7.4410291125L7.701181896875,6.5069392125C7.701166196875,6.4413128125,7.754375896875,6.3881035125,7.820017296875,6.3881035125ZM8.230897896875,6.3881035125C8.296529296875,6.3881039125,8.349734296874999,6.4413080125,8.349734296874999,6.5069392125L8.349734296874999,7.4410291125C8.349915996875,7.5067882125,8.296657996875,7.5601930125,8.230898896875,7.5601930125C8.165138696875001,7.5601930125,8.111881296875,7.5067882125,8.112062496875,7.4410291125L8.112062496875,6.5069392125C8.112048196875,6.4413123125,8.165257496875,6.3881035125,8.230897896875,6.3881035125ZM8.664610896875,6.3881035125C8.730242696874999,6.3881039125,8.783447296875,6.4413080125,8.783447296875,6.5069392125L8.783447296875,7.4410291125C8.783447296875,7.5066595125,8.730242696874999,7.5598640125,8.664610896875,7.5598640125C8.598979496875,7.5598640125,8.545774896874999,7.5066595125,8.545775896875,7.4410291125L8.545775896875,6.5069392125C8.545761596875,6.4413123125,8.598970396875,6.3881035125,8.664610896875,6.3881035125ZM9.075491896875,6.3881035125C9.141123296875,6.3881039125,9.194326896875001,6.4413080125,9.194327796875001,6.5069392125L9.194327796875001,7.4410291125C9.194509496875,7.5067882125,9.141251596875,7.5601930125,9.075492396875,7.5601930125C9.009732196875,7.5601930125,8.956475296875,7.5067882125,8.956656496875,7.4410291125L8.956656496875,6.5069392125C8.956640196875,6.4413128125,9.009849996875001,6.3881035125,9.075491896875,6.3881035125ZM9.497788396875,6.3881035125C9.563420296875,6.3881039125,9.616623896875,6.4413080125,9.616624796875,6.5069392125L9.616624796875,7.4410291125C9.616805996875,7.5067882125,9.563548596875,7.5601930125,9.497788396875,7.5601930125C9.432028796874999,7.5601930125,9.378770396875,7.5067882125,9.378952996875,7.4410291125L9.378952996875,6.5069392125C9.378939196874999,6.4413123125,9.432147996874999,6.3881035125,9.497788396875,6.3881035125ZM9.908669996875,6.3881035125C9.974301296875,6.3881039125,10.027505396875,6.4413080125,10.027505896874999,6.5069392125L10.027505896874999,7.4410291125C10.027505896874999,7.5066595125,9.974301296875,7.5598640125,9.908669996875,7.5598640125C9.843039496875,7.5598640125,9.789834496874999,7.5066595125,9.789834496874999,7.4410291125L9.789834496874999,6.5069392125C9.789834496874999,6.4413142125,9.843031896875,6.3881035125,9.908669996875,6.3881035125ZM10.342382396875,6.3881035125C10.408013796875,6.3881039125,10.461217896874999,6.4413080125,10.461218396875001,6.5069392125L10.461218396875001,7.4410291125C10.461399596875001,7.5067882125,10.408141596875,7.5601930125,10.342381496875,7.5601930125C10.276622296875,7.5601930125,10.223364396874999,7.5067882125,10.223546996875001,7.4410291125L10.223546996875001,6.5069392125C10.223531196875001,6.4413128125,10.276740996874999,6.3881035125,10.342382396875,6.3881035125ZM10.753263496875,6.3881035125C10.818895296874999,6.3881039125,10.872098896875,6.4413080125,10.872099896875,6.5069392125L10.872099896875,7.4410291125C10.872099896875,7.5066595125,10.818895296874999,7.5598640125,10.753263496875,7.5598640125C10.687632096875,7.5598640125,10.634427596875,7.5066595125,10.634428496875,7.4410291125L10.634428496875,6.5069392125C10.634428496875,6.4413142125,10.687625396875,6.3881035125,10.753263496875,6.3881035125Z" fill="currentColor" fill-opacity="1"/></g><g><path d="M6.397125661373135,6.9733243C6.396824002270625,7.28240931,6.647302034140625,7.5331318,6.956386624140625,7.5331318C7.265472054140625,7.5331318,7.515950944140625,7.28240931,7.515648844140625,6.9733243C7.515648844140625,6.66445249,7.265258434140625,6.4140625,6.956387044140625,6.4140625C6.647515234140625,6.4140625,6.397125244140625,6.66445249,6.397125661373135,6.9733243Z" fill="currentColor" fill-opacity="1"/></g><g><path d="M6.273428138515625,6.02469930375Q6.273428078515625,6.05045634375,6.268403108515625,6.07571846375Q6.263378138515625,6.10098058375,6.253521318515625,6.12477699375Q6.243664558515625,6.1485733937500004,6.229354678515625,6.16998958375Q6.215044858515625,6.19140583375,6.196831848515625,6.20961880375Q6.178618848515625,6.22783178375,6.157202598515625,6.24214160375Q6.135786418515625,6.25645145375,6.111989978515625,6.26630824375Q6.088193538515625,6.27616506375,6.062931418515625,6.28119003375Q6.037669268515625,6.28621494375,6.011912228515625,6.28621500375Q5.986155138515625,6.28621494375,5.960892978515625,6.28119003375Q5.935630828515625,6.27616506375,5.911834388515625,6.26630824375Q5.888037968515625,6.25645145375,5.866621758515625,6.24214160375Q5.845205545515625,6.22783175375,5.826992548515625,6.20961877375Q5.808779548515625,6.19140577375,5.794469688515625,6.16998955375Q5.780159823515625,6.14857334375,5.770303022515625,6.12477696375Q5.760446219515625,6.10098058375,5.755421265515625,6.07571843375Q5.750396311283135,6.05045634375,5.750396311283115,6.02469930375Q5.750396311283135,5.99894222375,5.755421265015625,5.97368009375Q5.760446218515625,5.94841796375,5.770303020515625,5.92462155375Q5.780159821515625,5.90082514375,5.794469684515625,5.87940894375Q5.808779545515625,5.85799273875,5.826992541515625,5.83977976475Q5.845205537515625,5.82156677875,5.866621748515625,5.80725693375Q5.888037968515625,5.79294708175,5.911834388515625,5.78309028775Q5.935630828515625,5.77323349375,5.960892978515625,5.76820854375Q5.986155138515625,5.76318359375,6.011912228515625,5.76318359375Q6.037669268515625,5.76318359375,6.062931418515625,5.76820854375Q6.088193538515625,5.77323349375,6.111989978515625,5.78309028775Q6.135786418515625,5.79294708175,6.157202628515625,5.80725692975Q6.178618848515625,5.82156677875,6.196831878515625,5.83977976475Q6.215044858515625,5.85799273875,6.229354708515625,5.87940894375Q6.243664558515625,5.90082514375,6.253521378515625,5.92462155375Q6.263378198515625,5.94841796375,6.268403168515625,5.97368011375Q6.273428078515625,5.99894222375,6.273428138515625,6.02469930375Z" fill="currentColor" fill-opacity="1"/></g><g><path d="M5.8273526990625,5.501750085Q5.8273526390625,5.527507125,5.8223277290625,5.552769245Q5.8173027590625,5.578031365,5.8074459390625,5.601827775Q5.7975891490625,5.6256241750000004,5.7832792990625,5.647040365Q5.7689694490625,5.668456615,5.7507564690625,5.686669585Q5.7325434690625,5.704882565,5.7111272490625,5.719192385Q5.6897110390625,5.733502235,5.6659146590625,5.743359025Q5.6421182790625,5.753215845,5.6168561290625,5.758240815Q5.5915940390625,5.763265725,5.5658369990625,5.763265785Q5.5400799190625,5.763265725,5.5148177890625,5.758240815Q5.4895556590625,5.753215845,5.4657592490625,5.743359025Q5.4419628390625,5.733502235,5.4205466390625,5.719192385Q5.3991304340625,5.704882535,5.3809174600625,5.686669555Q5.3627044740625,5.668456555,5.3483946290625,5.647040335Q5.3340847770625,5.625624125,5.3242279830625,5.601827745Q5.3143711890625,5.578031365,5.3093462390625,5.552769215Q5.3043212890625,5.527507125,5.3043212890625,5.501750085Q5.3043212890625,5.475993005,5.3093462390625,5.450730875Q5.3143711890625,5.425468745,5.3242279830625,5.401672335Q5.3340847770625,5.377875925,5.3483946250625,5.356459725Q5.3627044740625,5.33504352,5.3809174600625,5.316830546Q5.3991304340625,5.29861756,5.4205466390625,5.284307715Q5.4419628390625,5.269997863,5.4657592490625,5.260141069Q5.4895556590625,5.250284275,5.5148178090625,5.245259325Q5.5400799190625,5.240234375,5.5658369990625,5.240234375Q5.5915940390625,5.240234375,5.6168561590625,5.245259325Q5.6421182790625,5.250284275,5.6659146890625,5.260141069Q5.6897110890625004,5.269997863,5.7111272790625,5.284307711Q5.7325435290625,5.29861756,5.7507564990625,5.316830546Q5.7689694790625,5.33504352,5.7832792990625,5.356459725Q5.7975891490625,5.377875925,5.8074459390625,5.401672335Q5.8173027590625,5.425468745,5.8223277290625,5.450730895Q5.8273526390625,5.475993005,5.8273526990625,5.501750085Z" fill="currentColor" fill-opacity="1"/></g><g><path d="M5.324209388515625,4.93876180375Q5.324209328515625,4.96451884375,5.319184418515625,4.98978096375Q5.314159448515625,5.01504308375,5.304302628515625,5.03883949375Q5.294445838515625,5.0626358937500004,5.280135988515625,5.08405208375Q5.265826138515625,5.10546833375,5.247613158515625,5.12368130375Q5.229400158515625,5.14189428375,5.207983938515625,5.15620410375Q5.186567728515625,5.17051395375,5.162771348515625,5.18037074375Q5.138974968515625,5.19022756375,5.113712818515625,5.19525253375Q5.088450728515625,5.20027744375,5.062693688515625,5.20027750375Q5.036936608515625,5.20027744375,5.011674478515625,5.19525253375Q4.986412348515625,5.19022756375,4.962615938515625,5.18037074375Q4.938819528515625,5.17051395375,4.917403328515625,5.15620410375Q4.895987123515625,5.14189425375,4.877774149515625,5.12368127375Q4.859561163515625,5.10546827375,4.845251318515625,5.08405205375Q4.830941466515625,5.06263584375,4.821084672515625,5.03883946375Q4.811227878515625,5.01504308375,4.806202928515625,4.98978093375Q4.801177978515625,4.96451884375,4.801177978515625,4.93876180375Q4.801177978515625,4.91300472375,4.806202928515625,4.88774259375Q4.811227878515625,4.86248046375,4.821084672515625,4.83868405375Q4.830941466515625,4.81488764375,4.845251314515625,4.79347144375Q4.859561163515625,4.77205523875,4.877774149515625,4.75384226475Q4.895987123515625,4.73562927875,4.917403328515625,4.72131943375Q4.938819528515625,4.70700958175,4.962615938515625,4.69715278775Q4.986412348515625,4.68729599375,5.011674498515625,4.68227104375Q5.036936608515625,4.67724609375,5.062693688515625,4.67724609375Q5.088450728515625,4.67724609375,5.113712848515625,4.68227104375Q5.138974968515625,4.68729599375,5.162771378515625,4.69715278775Q5.1865677785156254,4.70700958175,5.207983968515625,4.72131942975Q5.229400218515625,4.73562927875,5.247613188515625,4.75384226475Q5.265826168515625,4.77205523875,5.280135988515625,4.79347144375Q5.294445838515625,4.81488764375,5.304302628515625,4.83868405375Q5.314159448515625,4.86248046375,5.319184418515625,4.88774261375Q5.324209328515625,4.91300472375,5.324209388515625,4.93876180375Z" fill="currentColor" fill-opacity="1"/></g><g><path d="M4.783041175625,4.3953047725Q4.783041115625,4.4210618125,4.778016205625,4.4463239325Q4.772991235625,4.4715860525,4.763134415625,4.4953824625Q4.753277625625,4.5191788625000004,4.738967775625,4.5405950525Q4.724657925625,4.5620113025,4.706444945625,4.5802242725Q4.688231945625,4.5984372525,4.666815725625,4.6127470725Q4.645399515625,4.6270569225,4.621603135625,4.6369137125Q4.597806755625,4.6467705325,4.572544605625,4.6517955025Q4.547282515625,4.6568204125,4.521525475625,4.6568204725Q4.495768395625,4.6568204125,4.470506265625,4.6517955025Q4.445244135625,4.6467705325,4.421447725625,4.6369137125Q4.397651315625,4.6270569225,4.376235115625,4.6127470725Q4.354818910625,4.5984372225,4.336605936625,4.5802242425Q4.318392950625,4.5620112425,4.304083105625,4.5405950225Q4.289773253625,4.5191788125,4.279916459625,4.4953824325Q4.270059665625,4.4715860525,4.265034715625,4.4463239025Q4.260009765625,4.4210618125,4.260009765625,4.3953047725Q4.260009765625,4.3695476925,4.265034715625,4.3442855625Q4.270059665625,4.3190234325,4.279916459625,4.2952270225Q4.289773253625,4.2714306125,4.304083101625,4.2500144125Q4.318392950625,4.2285982075,4.336605936625,4.2103852335Q4.354818910625,4.1921722475,4.376235115625,4.1778624025Q4.397651315625,4.1635525505,4.421447725625,4.1536957565Q4.445244135625,4.1438389625,4.470506285625,4.1388140125Q4.495768395625,4.1337890625,4.521525475625,4.1337890625Q4.547282515625,4.1337890625,4.572544635625,4.1388140125Q4.597806755625,4.1438389625,4.621603165625,4.1536957565Q4.6453995656250004,4.1635525505,4.666815755625,4.1778623985Q4.688232005625,4.1921722475,4.706444975625,4.2103852335Q4.724657955625,4.2285982075,4.738967775625,4.2500144125Q4.753277625625,4.2714306125,4.763134415625,4.2952270225Q4.772991235625,4.3190234325,4.778016205625,4.3442855825Q4.783041115625,4.3695476925,4.783041175625,4.3953047725Z" fill="currentColor" fill-opacity="1"/></g><g><path d="M9.79012125375,9.56669149125Q9.79012119375,9.59244853125,9.78509628375,9.61771065125Q9.78007131375,9.64297277125,9.77021449375,9.66676918125Q9.76035770375,9.69056558125,9.74604785375,9.71198177125Q9.73173800375,9.73339802125,9.71352502375,9.75161099125Q9.69531202375,9.76982397125,9.67389580375,9.78413379125Q9.65247959375,9.79844364125,9.62868321375,9.80830043125Q9.60488683375,9.81815725125,9.57962468375,9.82318222125Q9.55436259375,9.82820713125,9.52860555375,9.82820719125Q9.50284847375,9.82820713125,9.47758634375,9.82318222125Q9.45232421375,9.81815725125,9.42852780375,9.80830043125Q9.40473139375,9.79844364125,9.38331519375,9.78413379125Q9.36189898875,9.76982394125,9.34368601475,9.75161096125Q9.32547302875,9.73339796125,9.31116318375,9.71198174125Q9.29685333175,9.69056553125,9.28699653775,9.66676915125Q9.27713974375,9.64297277125,9.27211479375,9.61771062125Q9.26708984375,9.59244853125,9.26708984375,9.56669149125Q9.26708984375,9.54093441125,9.27211479375,9.51567228125Q9.27713974375,9.49041015125,9.28699653775,9.46661374125Q9.29685333175,9.44281733125,9.31116317975,9.42140113125Q9.32547302875,9.39998492625,9.34368601475,9.38177195225Q9.36189898875,9.36355896625,9.38331519375,9.34924912125Q9.40473139375,9.33493926925,9.42852780375,9.32508247525Q9.45232421375,9.31522568125,9.47758636375,9.31020073125Q9.50284847375,9.30517578125,9.52860555375,9.30517578125Q9.55436259375,9.30517578125,9.57962471375,9.31020073125Q9.60488683375,9.31522568125,9.62868324375,9.32508247525Q9.65247964375,9.33493926925,9.67389583375,9.34924911725Q9.69531208375,9.36355896625,9.71352505375,9.38177195225Q9.73173803375,9.39998492625,9.74604785375,9.42140113125Q9.76035770375,9.44281733125,9.77021449375,9.46661374125Q9.78007131375,9.49041015125,9.78509628375,9.51567230125Q9.79012119375,9.54093441125,9.79012125375,9.56669149125Z" fill="currentColor" fill-opacity="1"/></g><g><path d="M9.344076331875,9.0437422725Q9.344076271875,9.0694993125,9.339051361875,9.0947614325Q9.334026391875,9.1200235525,9.324169571875,9.1438199625Q9.314312781875,9.1676163625,9.300002931875,9.1890325525Q9.285693081875,9.2104488025,9.267480101875,9.2286617725Q9.249267101875,9.2468747525,9.227850881875,9.2611845725Q9.206434671875,9.2754944225,9.182638291875,9.2853512125Q9.158841911875,9.2952080325,9.133579761875,9.3002330025Q9.108317671875,9.3052579125,9.082560631875,9.3052579725Q9.056803551875,9.3052579125,9.031541421875,9.3002330025Q9.006279291875,9.2952080325,8.982482881875,9.2853512125Q8.958686471875,9.2754944225,8.937270271875,9.2611845725Q8.915854066875,9.2468747225,8.897641092875,9.2286617425Q8.879428106875,9.2104487425,8.865118261875,9.1890325225Q8.850808409875,9.1676163125,8.840951615875,9.1438199325Q8.831094821875,9.1200235525,8.826069871875,9.0947614025Q8.821044921875,9.0694993125,8.821044921875,9.0437422725Q8.821044921875,9.0179851925,8.826069871875,8.9927230625Q8.831094821875,8.9674609325,8.840951615875,8.9436645225Q8.850808409875,8.9198681125,8.865118257875,8.8984519125Q8.879428106875,8.8770357075,8.897641092875,8.8588227335Q8.915854066875,8.8406097475,8.937270271875,8.8262999025Q8.958686471875,8.8119900505,8.982482881875,8.8021332565Q9.006279291875,8.7922764625,9.031541441875,8.7872515125Q9.056803551875,8.7822265625,9.082560631875,8.7822265625Q9.108317671875,8.7822265625,9.133579791875,8.7872515125Q9.158841911875,8.7922764625,9.182638321875,8.8021332565Q9.206434721875,8.8119900505,9.227850911875,8.8262998985Q9.249267161875,8.8406097475,9.267480131875,8.8588227335Q9.285693111875,8.8770357075,9.300002931875,8.8984519125Q9.314312781875,8.9198681125,9.324169571875,8.9436645225Q9.334026391875,8.9674609325,9.339051361875,8.9927230825Q9.344076271875,9.0179851925,9.344076331875,9.0437422725Z" fill="currentColor" fill-opacity="1"/></g><g><path d="M8.840933021328125,8.48026571Q8.840932961328125,8.50602275,8.835908051328126,8.53128487Q8.830883081328125,8.55654699,8.821026261328125,8.5803434Q8.811169471328125,8.6041398,8.796859621328124,8.62555599Q8.782549771328124,8.64697224,8.764336791328125,8.66518521Q8.746123791328126,8.68339819,8.724707571328125,8.69770801Q8.703291361328125,8.71201786,8.679494981328125,8.72187465Q8.655698601328124,8.73173147,8.630436451328125,8.73675644Q8.605174361328125,8.74178135,8.579417321328124,8.74178141Q8.553660241328124,8.74178135,8.528398111328125,8.73675644Q8.503135981328125,8.73173147,8.479339571328126,8.72187465Q8.455543161328125,8.71201786,8.434126961328126,8.69770801Q8.412710756328124,8.68339816,8.394497782328125,8.66518518Q8.376284796328125,8.64697218,8.361974951328126,8.62555596Q8.347665099328125,8.60413975,8.337808305328124,8.58034337Q8.327951511328125,8.55654699,8.322926561328124,8.53128484Q8.317901611328125,8.50602275,8.317901611328125,8.48026571Q8.317901611328125,8.45450863,8.322926561328124,8.4292465Q8.327951511328125,8.40398437,8.337808305328124,8.38018796Q8.347665099328125,8.35639155,8.361974947328125,8.33497535Q8.376284796328125,8.313559145,8.394497782328125,8.295346171Q8.412710756328124,8.277133185,8.434126961328126,8.26282334Q8.455543161328125,8.248513488,8.479339571328126,8.238656694Q8.503135981328125,8.2287999,8.528398131328125,8.22377495Q8.553660241328124,8.21875,8.579417321328124,8.21875Q8.605174361328125,8.21875,8.630436481328125,8.22377495Q8.655698601328124,8.2287999,8.679495011328125,8.238656694Q8.703291411328125,8.248513488,8.724707601328126,8.262823336Q8.746123851328125,8.277133185,8.764336821328126,8.295346171Q8.782549801328125,8.313559145,8.796859621328124,8.33497535Q8.811169471328125,8.35639155,8.821026261328125,8.38018796Q8.830883081328125,8.40398437,8.835908051328126,8.42924652Q8.840932961328125,8.45450863,8.840933021328125,8.48026571Z" fill="currentColor" fill-opacity="1"/></g><g><path d="M7.776763916015625,7.93716978875C7.776563644405625,8.08174168875,7.893706676015625,8.19904660875,8.038278576015625,8.19904660875C8.182851316015626,8.19904660875,8.299994346015625,8.08174168875,8.299794916015625,7.93716978875C8.299993516015626,7.79259788875,8.182850476015625,7.67529296875,8.038278576015625,7.67529296875C7.893706676015625,7.67529296875,7.776563644405625,7.79259788875,7.776763916015625,7.93716978875Z" fill="currentColor" fill-opacity="1"/></g><g><path d="M6.330251868984375,7.9871016475Q6.330251808984375,8.0128586875,6.325226838984375,8.0381208075Q6.320201868984375,8.0633829275,6.310345048984375,8.0871793375Q6.300488288984375,8.1109757375,6.286178408984375,8.1323919275Q6.271868588984375,8.1538081775,6.253655578984375,8.1720211475Q6.235442578984375,8.1902341275,6.214026328984375,8.2045439475Q6.192610148984375,8.2188537975,6.168813708984375,8.2287105875Q6.145017268984375,8.2385674075,6.119755148984375,8.2435923775Q6.094492998984375,8.2486172875,6.068735958984375,8.2486173475Q6.042978868984375,8.2486172875,6.017716708984375,8.2435923775Q5.992454558984375,8.2385674075,5.968658118984375,8.2287105875Q5.944861698984375,8.2188537975,5.923445488984375,8.2045439475Q5.902029275984375,8.1902340975,5.883816278984375,8.1720211175Q5.865603278984375,8.1538081175,5.851293418984375,8.1323918975Q5.836983553984375,8.1109756875,5.827126752984375,8.0871793075Q5.817269949984375,8.0633829275,5.812244995984375,8.0381207775Q5.807220041751885,8.0128586875,5.807220041751865,7.9871016475Q5.807220041751885,7.9613445675,5.812244995484375,7.9360824375Q5.817269948984375,7.9108203075,5.827126750984375,7.8870238975Q5.836983551984375,7.8632274875,5.851293414984375,7.8418112875Q5.865603275984375,7.8203950825,5.883816271984375,7.8021821085Q5.902029267984375,7.7839691225,5.923445478984375,7.7696592775Q5.944861698984375,7.7553494255,5.968658118984375,7.7454926315Q5.992454558984375,7.7356358375,6.017716708984375,7.7306108875Q6.042978868984375,7.7255859375,6.068735958984375,7.7255859375Q6.094492998984375,7.7255859375,6.119755148984375,7.7306108875Q6.145017268984375,7.7356358375,6.168813708984375,7.7454926315Q6.192610148984375,7.7553494255,6.214026358984375,7.7696592735Q6.235442578984375,7.7839691225,6.253655608984375,7.8021821085Q6.271868588984375,7.8203950825,6.286178438984375,7.8418112875Q6.300488288984375,7.8632274875,6.310345108984375,7.8870238975Q6.320201928984375,7.9108203075,6.325226898984375,7.9360824575Q6.330251808984375,7.9613445675,6.330251868984375,7.9871016475Z" fill="currentColor" fill-opacity="1"/></g><g><path d="M5.8072110975,8.43290242875Q5.8072110375,8.45865946875,5.8021861275,8.48392158875Q5.7971611575,8.50918370875,5.7873043375,8.53298011875Q5.7774475475,8.55677651875,5.7631376975,8.57819270875Q5.7488278475,8.59960895875,5.7306148675,8.61782192875Q5.7124018675,8.63603490875,5.6909856475,8.65034472875Q5.6695694375,8.66465457875,5.6457730575,8.67451136875Q5.6219766775,8.68436818875,5.5967145275,8.68939315875Q5.5714524375,8.69441806875,5.5456953975,8.69441812875Q5.5199383175,8.69441806875,5.4946761875,8.68939315875Q5.4694140575,8.68436818875,5.4456176475,8.67451136875Q5.4218212375,8.66465457875,5.4004050375,8.65034472875Q5.3789888325,8.63603487875,5.3607758585,8.61782189875Q5.3425628725,8.59960889875,5.3282530275,8.57819267875Q5.3139431755,8.55677646875,5.3040863815,8.53298008875Q5.2942295875,8.50918370875,5.2892046375,8.48392155875Q5.2841796875,8.45865946875,5.2841796875,8.43290242875Q5.2841796875,8.40714534875,5.2892046375,8.38188321875Q5.2942295875,8.35662108875,5.3040863815,8.33282467875Q5.3139431755,8.30902826875,5.3282530235,8.28761206875Q5.3425628725,8.26619586375,5.3607758585,8.24798288975Q5.3789888325,8.22976990375,5.4004050375,8.21546005875Q5.4218212375,8.20115020675,5.4456176475,8.19129341275Q5.4694140575,8.18143661875,5.4946762075,8.17641166875Q5.5199383175,8.17138671875,5.5456953975,8.17138671875Q5.5714524375,8.17138671875,5.5967145575,8.17641166875Q5.6219766775,8.18143661875,5.6457730875,8.19129341275Q5.6695694875000004,8.20115020675,5.6909856775,8.21546005475Q5.7124019275,8.22976990375,5.7306148975,8.24798288975Q5.7488278775,8.26619586375,5.7631376975,8.28761206875Q5.7774475475,8.30902826875,5.7873043375,8.33282467875Q5.7971611575,8.35662108875,5.8021861275,8.38188323875Q5.8072110375,8.40714534875,5.8072110975,8.43290242875Z" fill="currentColor" fill-opacity="1"/></g><g><path d="M5.2441007459375,8.9363203975Q5.2441006859375,8.9620774375,5.2390757759375,8.9873395575Q5.2340508059375,9.0126016775,5.2241939859375,9.0363980875Q5.2143371959375,9.0601944875,5.2000273459375,9.0816106775Q5.1857174959375,9.1030269275,5.1675045159375,9.1212398975Q5.1492915159375,9.1394528775,5.1278752959375,9.1537626975Q5.1064590859375,9.1680725475,5.0826627059375,9.1779293375Q5.0588663259375,9.1877861575,5.0336041759375,9.1928111275Q5.0083420859375,9.1978360375,4.9825850459375,9.1978360975Q4.9568279659375,9.1978360375,4.9315658359375,9.1928111275Q4.9063037059375,9.1877861575,4.8825072959375,9.1779293375Q4.8587108859375,9.1680725475,4.8372946859375,9.1537626975Q4.8158784809375,9.1394528475,4.7976655069375,9.1212398675Q4.7794525209375,9.1030268675,4.7651426759375,9.0816106475Q4.7508328239375,9.0601944375,4.7409760299375,9.0363980575Q4.7311192359375,9.0126016775,4.7260942859375,8.9873395275Q4.7210693359375,8.9620774375,4.7210693359375,8.9363203975Q4.7210693359375,8.9105633175,4.7260942859375,8.8853011875Q4.7311192359375,8.8600390575,4.7409760299375,8.8362426475Q4.7508328239375,8.8124462375,4.7651426719375,8.7910300375Q4.7794525209375,8.7696138325,4.7976655069375,8.7514008585Q4.8158784809375,8.7331878725,4.8372946859375,8.7188780275Q4.8587108859375,8.7045681755,4.8825072959375,8.6947113815Q4.9063037059375,8.6848545875,4.9315658559375,8.6798296375Q4.9568279659375,8.6748046875,4.9825850459375,8.6748046875Q5.0083420859375,8.6748046875,5.0336042059375,8.6798296375Q5.0588663259375,8.6848545875,5.0826627359375,8.6947113815Q5.1064591359375004,8.7045681755,5.1278753259375,8.7188780235Q5.1492915759375,8.7331878725,5.1675045459375,8.7514008585Q5.1857175259375,8.7696138325,5.2000273459375,8.7910300375Q5.2143371959375,8.8124462375,5.2241939859375,8.8362426475Q5.2340508059375,8.8600390575,5.2390757759375,8.8853012075Q5.2441006859375,8.9105633175,5.2441007459375,8.9363203975Z" fill="currentColor" fill-opacity="1"/></g><g><path d="M4.701101478359375,9.4773360225Q4.701101418359375,9.5030930625,4.696076508359375,9.5283551825Q4.691051538359375,9.5536173025,4.681194718359375,9.5774137125Q4.671337928359375,9.6012101125,4.657028078359375,9.6226263025Q4.642718228359375,9.6440425525,4.624505248359375,9.6622555225Q4.606292248359375,9.6804685025,4.584876028359375,9.6947783225Q4.563459818359375,9.7090881725,4.539663438359375,9.7189449625Q4.515867058359375,9.7288017825,4.490604908359375,9.7338267525Q4.465342818359375,9.7388516625,4.439585778359375,9.7388517225Q4.413828698359375,9.7388516625,4.388566568359375,9.7338267525Q4.363304438359375,9.7288017825,4.339508028359375,9.7189449625Q4.315711618359375,9.7090881725,4.294295418359375,9.6947783225Q4.272879213359375,9.6804684725,4.254666239359375,9.6622554925Q4.236453253359375,9.6440424925,4.222143408359375,9.6226262725Q4.207833556359375,9.6012100625,4.197976762359375,9.5774136825Q4.188119968359375,9.5536173025,4.183095018359375,9.5283551525Q4.178070068359375,9.5030930625,4.178070068359375,9.4773360225Q4.178070068359375,9.4515789425,4.183095018359375,9.4263168125Q4.188119968359375,9.4010546825,4.197976762359375,9.3772582725Q4.207833556359375,9.3534618625,4.222143404359375,9.3320456625Q4.236453253359375,9.3106294575,4.254666239359375,9.2924164835Q4.272879213359375,9.2742034975,4.294295418359375,9.2598936525Q4.315711618359375,9.2455838005,4.339508028359375,9.2357270065Q4.363304438359375,9.2258702125,4.388566588359375,9.2208452625Q4.413828698359375,9.2158203125,4.439585778359375,9.2158203125Q4.465342818359375,9.2158203125,4.490604938359375,9.2208452625Q4.515867058359375,9.2258702125,4.539663468359375,9.2357270065Q4.5634598683593754,9.2455838005,4.584876058359375,9.2598936485Q4.606292308359375,9.2742034975,4.624505278359375,9.2924164835Q4.642718258359375,9.3106294575,4.657028078359375,9.3320456625Q4.671337928359375,9.3534618625,4.681194718359375,9.3772582725Q4.691051538359375,9.4010546825,4.696076508359375,9.4263168325Q4.701101418359375,9.4515789425,4.701101478359375,9.4773360225Z" fill="currentColor" fill-opacity="1"/></g><g><path d="M9.872121986171875,4.470500085Q9.872121926171875,4.496257125,9.867097016171876,4.521519245Q9.862072046171875,4.546781365,9.852215226171875,4.570577775Q9.842358436171875,4.5943741750000004,9.828048586171874,4.615790365Q9.813738736171874,4.637206615,9.795525756171875,4.655419585Q9.777312756171876,4.673632565,9.755896536171875,4.687942385Q9.734480326171875,4.702252235,9.710683946171875,4.712109025Q9.686887566171874,4.721965845,9.661625416171875,4.726990815Q9.636363326171875,4.732015725,9.610606286171874,4.732015785Q9.584849206171874,4.732015725,9.559587076171875,4.726990815Q9.534324946171875,4.721965845,9.510528536171876,4.712109025Q9.486732126171875,4.702252235,9.465315926171876,4.687942385Q9.443899721171874,4.673632535,9.425686747171875,4.655419555Q9.407473761171875,4.637206555,9.393163916171876,4.615790335Q9.378854064171875,4.594374125,9.368997270171874,4.570577745Q9.359140476171875,4.546781365,9.354115526171874,4.521519215Q9.349090576171875,4.496257125,9.349090576171875,4.470500085Q9.349090576171875,4.444743005,9.354115526171874,4.419480875Q9.359140476171875,4.394218745,9.368997270171874,4.370422335Q9.378854064171875,4.346625925,9.393163912171875,4.325209725Q9.407473761171875,4.30379352,9.425686747171875,4.285580546Q9.443899721171874,4.26736756,9.465315926171876,4.253057715Q9.486732126171875,4.238747863,9.510528536171876,4.228891069Q9.534324946171875,4.219034275,9.559587096171875,4.214009325Q9.584849206171874,4.208984375,9.610606286171874,4.208984375Q9.636363326171875,4.208984375,9.661625446171875,4.214009325Q9.686887566171874,4.219034275,9.710683976171875,4.228891069Q9.734480376171875,4.238747863,9.755896566171876,4.253057711Q9.777312816171875,4.26736756,9.795525786171876,4.285580546Q9.813738766171875,4.30379352,9.828048586171874,4.325209725Q9.842358436171875,4.346625925,9.852215226171875,4.370422335Q9.862072046171875,4.394218745,9.867097016171876,4.419480895Q9.872121926171875,4.444743005,9.872121986171875,4.470500085Z" fill="currentColor" fill-opacity="1"/></g><g><path d="M9.3490812146875,4.91630086625Q9.3490811546875,4.94205790625,9.3440562446875,4.96732002625Q9.3390312746875,4.99258214625,9.3291744546875,5.01637855625Q9.3193176646875,5.0401749562500004,9.3050078146875,5.06159114625Q9.2906979646875,5.08300739625,9.2724849846875,5.10122036625Q9.2542719846875,5.11943334625,9.2328557646875,5.13374316625Q9.2114395546875,5.14805301625,9.1876431746875,5.15790980625Q9.1638467946875,5.16776662625,9.1385846446875,5.17279159625Q9.1133225546875,5.17781650625,9.0875655146875,5.17781656625Q9.0618084346875,5.17781650625,9.0365463046875,5.17279159625Q9.0112841746875,5.16776662625,8.9874877646875,5.15790980625Q8.9636913546875,5.14805301625,8.9422751546875,5.13374316625Q8.9208589496875,5.11943331625,8.9026459756875,5.10122033625Q8.8844329896875,5.08300733625,8.8701231446875,5.06159111625Q8.8558132926875,5.04017490625,8.8459564986875,5.01637852625Q8.8360997046875,4.99258214625,8.8310747546875,4.96731999625Q8.8260498046875,4.94205790625,8.8260498046875,4.91630086625Q8.8260498046875,4.89054378625,8.8310747546875,4.86528165625Q8.8360997046875,4.84001952625,8.8459564986875,4.81622311625Q8.8558132926875,4.79242670625,8.8701231406875,4.77101050625Q8.8844329896875,4.74959430125,8.9026459756875,4.73138132725Q8.9208589496875,4.71316834125,8.9422751546875,4.69885849625Q8.9636913546875,4.68454864425,8.9874877646875,4.67469185025Q9.0112841746875,4.66483505625,9.0365463246875,4.65981010625Q9.0618084346875,4.65478515625,9.0875655146875,4.65478515625Q9.1133225546875,4.65478515625,9.1385846746875,4.65981010625Q9.1638467946875,4.66483505625,9.1876432046875,4.67469185025Q9.2114396046875,4.68454864425,9.2328557946875,4.69885849225Q9.2542720446875,4.71316834125,9.2724850146875,4.73138132725Q9.2906979946875,4.74959430125,9.3050078146875,4.77101050625Q9.3193176646875,4.79242670625,9.3291744546875,4.81622311625Q9.3390312746875,4.84001952625,9.3440562446875,4.86528167625Q9.3490811546875,4.89054378625,9.3490812146875,4.91630086625Z" fill="currentColor" fill-opacity="1"/></g><g><path d="M8.262939453125,5.41959166375C8.262739181515,5.56416356375,8.379882213125,5.68146848375,8.524454113125,5.68146848375C8.669026853125,5.68146848375,8.786169883125,5.56416356375,8.785970453125,5.41959166375C8.786169053125,5.27501976375,8.669026013125,5.15771484375,8.524454113125,5.15771484375C8.379882213125,5.15771484375,8.262739181515,5.27501976375,8.262939453125,5.41959166375Z" fill="currentColor" fill-opacity="1"/></g><g><path d="M8.242971595546875,5.96073446Q8.242971535546875,5.9864915,8.237946625546876,6.01175362Q8.232921655546875,6.03701574,8.223064835546875,6.06081215Q8.213208045546875,6.0846085500000004,8.198898195546874,6.10602474Q8.184588345546874,6.12744099,8.166375365546875,6.14565396Q8.148162365546876,6.16386694,8.126746145546875,6.17817676Q8.105329935546875,6.19248661,8.081533555546875,6.2023434Q8.057737175546874,6.21220022,8.032475025546875,6.21722519Q8.007212935546875,6.2222501,7.981455895546875,6.22225016Q7.955698815546875,6.2222501,7.930436685546875,6.21722519Q7.905174555546875,6.21220022,7.881378145546875,6.2023434Q7.857581735546875,6.19248661,7.836165535546875,6.17817676Q7.814749330546875,6.16386691,7.796536356546875,6.14565393Q7.778323370546875,6.12744093,7.764013525546875,6.10602471Q7.749703673546875,6.0846085,7.739846879546875,6.06081212Q7.729990085546875,6.03701574,7.724965135546875,6.01175359Q7.719940185546875,5.9864915,7.719940185546875,5.96073446Q7.719940185546875,5.93497738,7.724965135546875,5.90971525Q7.729990085546875,5.88445312,7.739846879546875,5.86065671Q7.749703673546875,5.8368603,7.764013521546875,5.8154441Q7.778323370546875,5.794027895,7.796536356546875,5.775814921Q7.814749330546875,5.757601935,7.836165535546875,5.74329209Q7.857581735546875,5.728982238,7.881378145546875,5.719125444Q7.905174555546875,5.70926865,7.930436705546875,5.7042437Q7.955698815546875,5.69921875,7.981455895546875,5.69921875Q8.007212935546875,5.69921875,8.032475055546875,5.7042437Q8.057737175546874,5.70926865,8.081533585546875,5.719125444Q8.105329985546875,5.728982238,8.126746175546876,5.743292086Q8.148162425546875,5.757601935,8.166375395546876,5.775814921Q8.184588375546875,5.794027895,8.198898195546874,5.8154441Q8.213208045546875,5.8368603,8.223064835546875,5.86065671Q8.232921655546875,5.88445312,8.237946625546876,5.90971527Q8.242971535546875,5.93497738,8.242971595546875,5.96073446Z" fill="currentColor" fill-opacity="1"/></g></g></svg>