<svg xmlns="http://www.w3.org/2000/svg" xmlns:xlink="http://www.w3.org/1999/xlink" fill="none" version="1.1" width="14" height="14" viewBox="0 0 14 14"><defs><clipPath id="master_svg0_2370_13132"><rect x="0" y="0" width="14" height="14" rx="0"/></clipPath></defs><g clip-path="url(#master_svg0_2370_13132)"><g><path d="M6.750001859375,5.5225897L6.750001859375,1.0078633C5.333370159375,1.0686488,3.983448459375,1.6266247,2.937326159375,2.5837929L6.132225059375,5.7787189C6.316085859375,5.6476402,6.527330859375,5.5600586,6.750001859375,5.5225897ZM5.784193059375,3.6938672C5.400888459375,3.8510115,4.962759959375,3.6677265,4.805561059375,3.2844219C4.648361659375,2.9011171,4.831645959375,2.4629881,5.214951059375,2.305789C5.598228459375,2.1485896,6.036385059375,2.3318477,6.193611659375,2.7151248L6.193857659375,2.7153711C6.350838159375,3.0986757,6.167470959375,3.5367227,5.784193059375,3.6938672ZM5.522595859375,6.7499962C5.560060059375,6.5273232,5.647642159375,6.3160772,5.778724659375,6.1322184L2.584208959375,2.9377031C2.374478859375,3.1634319,2.182742159375,3.4052331,2.010756059375,3.6608906C3.343298959375,4.1026015,4.244740259375,5.346168,4.250017359375001,6.7499962L5.522595859375,6.7499962ZM5.596204759375,10.769281C5.468711859375,10.71607,5.322222259375,10.776289,5.269015359375,10.903784C5.215806959375,11.031277,5.276030559375,11.177764,5.403525859375,11.230968C5.531022059375,11.284174,5.677508359375,11.223946,5.730709059375,11.096449C5.783240759375,10.96896,5.723216059375,10.822956,5.596204759375,10.769281ZM5.522595859375,7.2500038L4.250017359375001,7.2500038C4.244740259375,8.6538324,3.343298459375,9.8973989,2.010755559375,10.339109C2.182755459375,10.594757,2.374491359375,10.836557,2.584208759375,11.062297L5.778724659375,7.8677812C5.647642159375,7.6839228,5.560060059375,7.4726768,5.522595859375,7.2500038ZM2.937353359375,11.416206C3.983475959375,12.373375,5.333396959375,12.931351,6.750029559375,12.992136L6.750029559375,8.4774103C6.527363259375,8.4399223,6.316122959375,8.3523417,6.132251759375,8.2212811L2.937353359375,11.416206ZM6.191915959375,11.289551C6.032064459375,11.671762,5.592649959375,11.851984,5.210466359375,11.69216C4.828282359375,11.532336,4.648033159375,11.092894,4.807884659375,10.710711L4.808131259375,10.710464C4.968037159375,10.328336,5.407451159375,10.148195,5.789580359375,10.308129C6.171681859375,10.468008,6.351821859375,10.907422,6.191915959375,11.289551ZM8.403806659375,3.2307189C8.531299559375,3.2839301,8.677788759375,3.223711,8.730996159375,3.0962167C8.784203559375,2.9687223,8.723979959375,2.8222346,8.596484159375,2.7690303C8.468989359375,2.715826,8.322503059375,2.7760537,8.269302359375,2.9035506C8.216464059375,3.0310388,8.276577959375,3.1772594,8.403806659375,3.2307189ZM11.062686359375,2.5837929C10.016563459375,1.6266246,8.666643159375,1.0686488,7.250010059375,1.0078632L7.250010059375,5.522562C7.472676259375,5.56005,7.683917059375,5.6476302,7.867787359375,5.7786913L11.062686359375,2.5837929ZM7.808095959375,2.7104492C7.969695059375,2.3310671,8.407227059375,2.1532652,8.787657759375,2.3123794C9.168088959375,2.4714937,9.348749159375,2.9078524,9.192127259375,3.2893164L9.191881159375,3.2895625C9.031778359375,3.671387,8.592567459375,3.8512607,8.210632359375001,3.6914208C7.828697159375,3.5315812,7.648520459375,3.092495,7.808095959375,2.7104492ZM5.596450759375,2.7692931C5.535305459375,2.7435052,5.466386759375,2.7432394,5.405044559375,2.7685547C5.253083659375,2.8308861,5.201579559375,3.020381,5.301082159375,3.1510589C5.400584259375,3.2817369,5.596952459375,3.2824943,5.697460159375,3.1525879C5.797967459375,3.0226812,5.747927159375,2.8327947,5.596450759375,2.7692931ZM8.477416059375,6.7499962L9.749994259375,6.7499962C9.755271959375,5.346168,10.656713359375,4.1026015,11.989256359375,3.6608906C11.817264359375,3.4052374,11.625527359375,3.1634369,11.415803359375,2.9377031L8.221287259375,6.132246C8.352375059375,6.316092,8.439957159375,6.5273304,8.477416059375,6.7499962ZM9.749994259375,7.2500038L8.477416059375,7.2500038C8.439951459375,7.4726768,8.352369259375,7.6839228,8.221287259375,7.8677812L11.415803359375,11.062297C11.625533359375,10.836568,11.817270359375,10.594767,11.989256359375,10.339109C10.656712359375,9.8973989,9.755298659375,8.6538324,9.749994259375,7.2500038ZM10.750010359375,7.2500038L10.750010359375,6.7499962C10.751377359375,5.5079064,11.757928359375,4.5013556,13.000018359375,4.4999886L13.539319359375,4.4999886C12.502635359375,1.7898399,9.901670459375,0,7.000006159375,0C4.098341659375,0,1.497377059375,1.7898399,0.460693359375,4.4999881L0.999994159375,4.4999881C2.242084059375,4.5013556,3.248634859375,5.5079064,3.250001859375,6.7499962L3.250001859375,7.2500038C3.248634859375,8.492094,2.242084059375,9.4986448,0.999994159375,9.5000124L0.460693359375,9.5000124C1.497377059375,12.21016,4.098341659375,14,7.000006159375,14C9.901669459375,14,12.502635359375,12.21016,13.539318359375,9.4999838L13.000017359375,9.4999838C11.757928359375,9.4986439,10.751377359375,8.492094,10.750010359375,7.2500038ZM12.595959359375,10.31275C11.424115359375,12.288582,9.297208759375,13.500019,7.000006159375,13.500019C4.702803159375,13.500019,2.575896459375,12.288582,1.404052739375,10.31275C1.317241969375,10.165454,1.400572899375,9.9764261,1.567869159375,9.9411488C2.837275459375,9.6683407,3.745416159375,8.5483675,3.750010059375,7.2499771L3.750010059375,6.7499695C3.745443359375,5.4515791,2.837302959375,4.3316059,1.567869259375,4.0587978C1.4005362993750001,4.0235662,1.317183969375,3.8344898,1.404052849375,3.6871963C2.575896459375,1.711418,4.702803159375,0.50000781,7.000006159375,0.50000781C9.297208759375,0.50000781,11.424115359375,1.7114453,12.595959359375,3.6872773C12.682772359375,3.8345671,12.599437359375,4.0235915,12.432143359375,4.0588517C11.162737359375,4.3316603,10.254596759375,5.451633,10.250001859375,6.7500234L10.250001859375,7.2500315C10.254568059375,8.5484228,11.162709359375,9.668395,12.432143359375,9.9412041C12.599455359375,9.9764252,12.682806359375,10.165471,12.595959359375,10.31275ZM8.403560659375,11.230707C8.530919059375,11.284039,8.677397759375,11.224027,8.730728159375,11.096667C8.783967959375,10.969368,8.723956059375,10.82301,8.596672059375,10.769733C8.469387959375,10.716456,8.323011859375,10.776425,8.269698159375,10.903693C8.216382459375,11.030961,8.276308559375,11.177355,8.403560659375,11.230707ZM7.250010059375,8.4774103L7.250010059375,12.992109C8.666643159375,12.931324,10.016563459375,12.373348,11.062686359375,11.41618L7.867787359375,8.2212811C7.683928459375,8.3523636,7.472682959375,8.4399462,7.250010059375,8.4774103ZM8.215818359375,10.306133C8.599122959375,10.148988,9.037252459375,10.332301,9.194451359375,10.715578C9.351650259375,11.098883,9.168365459375,11.537011,8.785059959375,11.694211C8.401782959375,11.85141,7.963626359375,11.668153,7.806399859375,11.284875L7.806153259375,11.284629C7.649173259375,10.901324,7.832567659375,10.463305,8.215818359375,10.306133ZM7.999994759375,7C7.999994759375,6.447711,7.552268459375,6.0000119,7.000006159375,6.0000119C6.447717159375,6.0000119,6.000017159375,6.4477386,6.000017159375,7C6.000017159375,7.552289,6.447744359375,7.9999876,7.000006159375,7.9999876C7.552076359375,7.9994411,7.999447359375,7.5520697,7.999994759375,7ZM7.177521659375,7.177516C7.105981359375,7.2495818,6.997962459375,7.2712278,6.904177659375,7.2322927C6.810393359375,7.1933575,6.749466859375,7.101572,6.750001859375,7.0000277C6.749089259375,6.9672375,6.755947559375,6.9346962,6.770017659375,6.9050627C6.782675759375,6.8747578,6.800432159375,6.8468461,6.822517859375,6.8225389C6.922756159375,6.7300153,7.077255759375,6.7300153,7.177494059375,6.8225389C7.199594959375,6.8468342,7.217353359375,6.8747487,7.229994759375,6.9050627C7.269906059375,6.9980612,7.249118759375,7.1059928,7.177521659375,7.177516Z" fill="currentColor" fill-opacity="1"/></g></g></svg>