<svg xmlns="http://www.w3.org/2000/svg" xmlns:xlink="http://www.w3.org/1999/xlink" fill="none" version="1.1" width="14" height="14" viewBox="0 0 14 14"><defs><clipPath id="master_svg0_2370_13102"><rect x="0" y="0" width="14" height="14" rx="0"/></clipPath></defs><g clip-path="url(#master_svg0_2370_13102)"><g><path d="M13.29682027734375,1.4211268C13.29682027734375,1.1726899,13.28978927734375,0.92112815,13.25478927734375,0.67566007C13.19494527734375,0.23441127,13.02338427734375,-0.0034006131,12.67338327734375,0.000036879119C11.04245027734375,0.017536838,9.40776727734375,0.0034743713,7.77683397734375,0.014099333C7.59480287734375,0.014099333,7.39886667734375,0.05613048,7.23777297734375,0.16456769C6.87027357734375,0.41300455,6.84933657734375,0.98003435,7.20277307734375,1.2530024C7.39527227734375,1.4000332,7.64730357734375,1.4455018,7.87120867734375,1.4489394C9.10667417734375,1.4664394,10.34214017734375,1.4559706,11.57776127734375,1.459408C11.75276127734375,1.459408,11.92776027734375,1.4839392,12.09932327734375,1.5153453C12.30932227734375,1.5573765,12.42479127734375,1.7008138,12.41776027734375,2.0465941C12.40369727734375,3.0090916,12.42119727734375,3.9750264,12.40729127734375,4.9411178C12.40385427734375,5.2036171,12.33026027734375,5.4661164,12.28119727734375,5.7670527C12.16572927734375,5.697053,12.10932327734375,5.676116,12.06416727734375,5.6306472C11.35713727734375,4.8962741,10.67120167734375,4.9376802,9.97464177734375,5.672678C9.61058047734375,6.0576773,9.19339367734375,6.00174,8.77417567734375,5.5851784C8.11620857734375,4.9342427,7.48964787734375,4.9306488,6.83168077734375,5.5817409C6.36965087734375,6.0367393,5.99512007734375,6.0437708,5.54371497734375,5.5992408C4.86465457734375,4.9273672,4.245281177343751,4.9412737,3.56622027734375,5.5887718C3.39122077734375,5.7567401,3.16715907734375,5.8856463,2.96075317734375,5.9037714C2.26450527734375,5.953146,1.59247570734375,5.0086174,1.58200692734375,4.0000262C1.57153832734375,3.0340912,1.57856952734375,2.0715938,1.57856952734375,1.1055026L1.57856952734375,0.035036784C0.87857132734375,-0.031369291,0.71060300634375,0.18550514,0.70013427734375,1.1131591L0.70013427734375,12.600004C0.70013427734375,13.678126,0.92763370734375,14,1.67669427734375,14L12.27447927734375,14C13.07603927734375,14,13.29994527734375,13.688438,13.29994527734375,12.557973Q13.29994527734375,6.9878311,13.29682027734375,1.4211268ZM1.76747537734375,7.1995487C1.85440847734375,7.1569152,1.95943827734375,7.192975,2.00184967734375,7.2800174C2.01231837734375,7.3009548,2.28888007734375,7.8295469,3.05184697734375,7.8295469C3.18137787734375,7.8295469,3.36340857734375,7.7279849,3.53840807734375,7.5639224C4.29090617734375,6.8429866,5.01887317734375,6.8464241,5.75715257734375,7.5743904C6.13871427734375,7.9523582,6.40465067734375,7.9493899,6.80011847734375,7.556891C7.52464767734375,6.8393931,8.26308347734375,6.8428307,8.98761267734375,7.5639224C9.19073767734375,7.763453,9.39386177734375,7.8579836,9.54761127734375,7.8579836C9.68058017734375,7.8579836,9.81011107734375,7.7879839,9.93604847734375,7.6548591Q10.52979657734375,7.0298605,11.13307627734375,7.0248604L11.13651327734375,7.0248604C11.52495127734375,7.0248604,11.90994927734375,7.224391,12.28104227734375,7.6093898C12.35112127734375,7.6785903,12.35067727734375,7.7918587,12.28005727734375,7.860508C12.20943727734375,7.9291577,12.09620227734375,7.9263973,12.02901027734375,7.8543887C11.72494927734375,7.5354853,11.42401227734375,7.3750176,11.13698227734375,7.3750176L11.13354527734375,7.3750176C10.83260827734375,7.3784552,10.51760867734375,7.5534549,10.19198417734375,7.8965793C9.99948497734375,8.0997038,9.78573517734375,8.2045469,9.55495457734375,8.2081413L9.54089257734375,8.2081413C9.27526757734375,8.2081413,9.00964357734375,8.0751724,8.74292567734375,7.8126731C8.15495867734375,7.2317367,7.63355397734375,7.2281437,7.04543067734375,7.8092356C6.51699447734375,8.3272038,6.02980807734375,8.3342342,5.51246547734375,7.8232985C4.91043567734375,7.2318935,4.3924684773437495,7.2318935,3.77997017734375,7.816267C3.63653327734375,7.9528289,3.35653397734375,8.1803284,3.05200337734375,8.1803284C2.06153727734375,8.1803284,1.70106947734375,7.4662676,1.68700706734375,7.4348612C1.64373624734375,7.3476939,1.6798907473437499,7.2419691,1.76747537734375,7.1995487ZM11.54682427734375,13.07594L2.41153607734375,13.07594C1.76747537734375,13.07594,1.57153832734375,12.852035,1.57153832734375,12.110005L12.42854127734375,12.082036C12.42838527734375,12.862503,12.23588527734375,13.07594,11.54682427734375,13.07594Z" fill="currentColor" fill-opacity="1"/></g><g><path d="M2.99828330015625,0.7282421808C3.27172017015625,1.0627725075,3.42187589015625,1.4352714975,3.37906367015625,1.9221450875C3.35062611015625,2.2421443875,3.22281408015625,2.4265187875,2.98343962015625,2.4204250875C2.7440652001562498,2.4143313875,2.62500309915625,2.2294879874999998,2.60406553745625,1.9013638875C2.57203438915625,1.4124590175,2.71625268015625,1.0423037075,2.99828330015625,0.7282421808ZM5.09374671015625,0.72199219462C5.37202691015625,1.0344913574999999,5.52921441015625,1.4165216075,5.486245610156249,1.9251139875C5.45858931015625,2.2532380874999998,5.32296471015625,2.4260501875,5.0857777101562505,2.4188626875C4.84859131015625,2.4116752875,4.72421621015625,2.2301132875,4.70656011015625,1.8965203875C4.68031051015625,1.4065217975,4.83140371015625,1.0357414775,5.09374671015625,0.72199219462ZM4.04281171015625,0.7216796875C4.3137483101562495,1.0201163275,4.46468551015625,1.3898028775,4.43952941015625,1.8757390875C4.42187331015625,2.2237068874999997,4.29343581015625,2.4255814874999997,4.03671811015625,2.4180814875000003C3.79671881015625,2.4110502875,3.67953161015625,2.2116757875,3.65828161015625,1.8899579875C3.6250005101562497,1.3991780875,3.78515601015625,1.0335541375,4.04281171015625,0.7216796875Z" fill="currentColor" fill-opacity="1"/></g></g></svg>