<svg xmlns="http://www.w3.org/2000/svg" xmlns:xlink="http://www.w3.org/1999/xlink" fill="none" version="1.1" width="14" height="14" viewBox="0 0 14 14"><defs><clipPath id="master_svg0_2370_13119"><rect x="0" y="0" width="14" height="14" rx="0"/></clipPath></defs><g clip-path="url(#master_svg0_2370_13119)"><g><path d="M10.500018310546874,13.82490334375L9.318768510546874,13.82490334375L9.187518110546876,12.86240434375C8.881268510546874,12.77490334375,8.618768710546876,12.68740334375,8.356268910546875,12.51240334375L7.568768010546875,13.12490334375L6.737518310546875,12.29365334375L7.350018010546875,11.46240434375C7.218768610546875,11.19990334375,7.087517710546875,10.93740334375,7.000017610546875,10.63115434375L5.993767710546875,10.49990434375L5.993767710546875,9.31865404375L7.000018610546875,9.18740364375C7.087518710546875,8.88115314375,7.175018310546875,8.61865334375,7.350018010546875,8.35615344375L6.737518310546875,7.52490374375L7.568768010546875,6.69365354375L8.400017710546875,7.30615374375C8.662518510546874,7.13115404375,8.925018310546875,7.04365344375,9.231267910546874,6.95615334375L9.362517310546876,5.94990344375L10.500018310546874,5.94990344375L10.631268310546876,6.95615334375C10.937518310546874,7.04365344375,11.200018310546875,7.13115404375,11.462517310546875,7.30615374375L12.250017310546875,6.69365354375L13.081267310546876,7.52490374375L12.468767310546875,8.31240364375C12.643767310546876,8.57490344375,12.731268310546875,8.88115314375,12.818767310546875,9.14365294375L13.781267310546875,9.27490334375L13.781267310546875,10.45615334375L12.818767310546875,10.58740334375C12.731267310546874,10.89365434375,12.643767310546876,11.15615234375,12.468767310546875,11.41865234375L13.037517310546875,12.20615334375L12.250018310546874,13.12490334375L11.462518310546875,12.51240334375C11.200019310546875,12.68740334375,10.937518310546874,12.77490434375,10.631269310546875,12.86240434375L10.500018310546874,13.82490334375ZM8.356268910546875,11.54990434375C8.487518310546875,11.54990434375,8.575018910546875,11.59365334375,8.706268310546875,11.68115334375C8.968768110546876,11.85615234375,9.275017710546875,11.98740434375,9.581268310546875,12.03115234375C9.712517710546875,12.07490234375,9.843768110546876,12.11865334375,9.931267710546875,12.24990234375C10.018768310546875,12.11865334375,10.150017710546875,12.07490234375,10.281267310546875,12.03115234375C10.587517310546875,11.98740334375,10.893767310546876,11.85615234375,11.156267310546875,11.68115334375C11.287517310546875,11.59365234375,11.418768310546875,11.54990434375,11.550017310546876,11.59365234375C11.550017310546876,11.46240334375,11.550017310546876,11.33115334375,11.637518310546875,11.19990234375C11.812517310546875,10.93740234375,11.943768310546876,10.63115334375,12.031267310546875,10.32490234375C12.075018310546875,10.19365334375,12.118767310546875,10.06240274375,12.250017310546875,9.97490314375C12.118767310546875,9.88740254375,12.075018310546875,9.75615314375,12.031267310546875,9.62490364375C11.987517310546876,9.31865314375,11.856268310546875,9.01240344375,11.681267310546875,8.74990364375C11.593767310546875,8.61865334375,11.550018310546875,8.48740294375,11.593767310546875,8.35615344375C11.462517310546875,8.35615344375,11.287517310546875,8.35615344375,11.200018310546875,8.26865294375C10.937517310546875,8.09365364375,10.631268310546876,7.96240284375,10.325018310546875,7.91865344375C10.193768310546876,7.87490324375,10.062517210546876,7.83115334375,9.975018510546874,7.69990344375C9.887517910546874,7.83115334375,9.756268510546874,7.87490324375,9.625018110546876,7.91865344375C9.318768510546874,7.96240374375,9.012518910546875,8.09365364375,8.750018110546876,8.26865294375C8.618768710546876,8.35615344375,8.487518310546875,8.39990334375,8.356268910546875,8.35615344375C8.356268910546875,8.48740294375,8.356268910546875,8.66240404375,8.268768310546875,8.74990364375C8.093768610546874,9.01240344375,7.962517710546875,9.31865314375,7.918768910546875,9.62490364375C7.875018610546875,9.75615314375,7.831268310546875,9.88740344375,7.700018910546875,9.97490314375C7.831268310546875,10.06240364375,7.875018610546875,10.19365334375,7.918768910546875,10.32490234375C7.962518710546875,10.63115334375,8.093768610546874,10.93740234375,8.268768310546875,11.19990234375C8.356268910546875,11.33115334375,8.400017710546875,11.46240334375,8.356268910546875,11.59365234375C8.312518110546876,11.54990334375,8.312518110546876,11.54990334375,8.356268910546875,11.54990434375ZM7.087517310546875,13.73740434375C3.325018210546875,13.73740434375,0.262518279546875,10.67490434375,0.262518279546875,6.91240354375L1.137518230546875,6.91240354375C1.137518230546875,10.19365334375,3.806268010546875,12.86240434375,7.087518710546875,12.86240434375L7.087517310546875,13.73740434375ZM9.931266810546875,11.68115434375C8.968767210546876,11.68115434375,8.181266810546875,10.89365434375,8.181266810546875,9.93115424375C8.181266810546875,8.96865364375,8.968767210546876,8.18115334375,9.931266810546875,8.18115334375C10.893767310546876,8.18115334375,11.681266310546874,8.96865364375,11.681266310546874,9.93115424375C11.681266310546874,10.89365434375,10.893767310546876,11.68115434375,9.931266810546875,11.68115434375ZM9.931266810546875,9.05615424375C9.450017010546874,9.05615424375,9.056266810546875,9.44990344375,9.056266810546875,9.93115424375C9.056266810546875,10.41240434375,9.450017010546874,10.80615434375,9.931266810546875,10.80615434375C10.412517310546875,10.80615434375,10.806266310546874,10.41240434375,10.806266310546874,9.93115424375C10.806266310546874,9.44990344375,10.412517310546875,9.05615424375,9.931266810546875,9.05615424375ZM4.200018910546875,7.17490334375L3.106268210546875,7.17490334375L2.975018010546875,6.29990294375C2.712518210546875,6.25615314375,2.493768210546875,6.12490324375,2.275018210546875,5.99365334375L1.575018210546875,6.51865294375L0.787518260546875,5.73115304375L1.312518210546875,4.98740294375C1.181268310546875,4.76865294375,1.0937682405468752,4.54990294375,1.050018310546875,4.28740264375L0.175018310546875,4.15615274375L0.175018310546875,3.10615304375L1.0937682405468752,2.97490284375C1.137518230546875,2.71240304375,1.268768310546875,2.49365284375,1.400018310546875,2.27490284375L0.831268250546875,1.57490284375L1.618768210546875,0.78740286375L2.362518310546875,1.31240294375C2.581268310546875,1.18115294375,2.800018310546875,1.09365294375,3.062518310546875,1.0061528637500001L3.193768310546875,0.13115285375L4.287518010546875,0.13115285375L4.418768910546875,1.0061528637500001C4.681268710546875,1.04990285375,4.900018710546875,1.18115294375,5.118768710546875,1.31240294375L5.818769010546875,0.78740286375L6.606268910546875,1.57490284375L6.081269310546875,2.27490284375C6.212518710546875,2.49365284375,6.300019310546875,2.75615284375,6.387518910546875,2.97490284375L7.262519310546875,3.10615304375L7.262519310546875,4.19990344375L6.387519310546875,4.33115334375C6.343769110546875,4.59365364375,6.212519610546875,4.81240364375,6.081269310546875,5.03115364375L6.606269310546875,5.73115394375L5.731269310546875,6.56240364375L5.031269110546875,6.03740354375C4.812519110546875,6.12490364375,4.550019310546875,6.21240374375,4.331269310546875,6.29990384375L4.200018910546875,7.17490334375ZM2.275018710546875,5.03115324375C2.406268610546875,5.03115324375,2.493768710546875,5.07490344375,2.625018610546875,5.16240314375C2.843768610546875,5.33740334375,3.106268610546875,5.42490334375,3.368768710546875,5.46865324375C3.500018610546875,5.51240344375,3.587518710546875,5.55615334375,3.675018310546875,5.64365294375C3.762518610546875,5.55615334375,3.850018010546875,5.51240304375,3.981268610546875,5.46865324375C4.243768710546875,5.42490294375,4.506268010546875,5.33740334375,4.725018010546875,5.16240314375C4.812518610546875,5.07490344375,4.943768010546875,5.07490344375,5.031268610546875,5.07490344375C5.031268610546875,4.94365314375,5.075018910546875,4.85615344375,5.162518010546875,4.76865334375C5.337517710546875,4.54990334375,5.425018310546875,4.28740314375,5.468768610546875,4.02490354375C5.468768610546875,3.89365334375,5.556267710546875,3.80615354375,5.643768310546875,3.71865344375C5.556267710546875,3.63115354375,5.512517910546875,3.54365374375,5.468768610546875,3.41240354375C5.425018310546875,3.14990354375,5.337517710546875,2.88740374375,5.162518010546875,2.66865344375C5.075018910546875,2.58115364375,5.075018910546875,2.44990344375,5.075018910546875,2.36240364375C4.943768010546875,2.27490374375,4.812518610546875,2.27490374375,4.725018010546875,2.18740364375C4.506268010546875,2.01240364375,4.243767710546875,1.92490364375,3.981268610546875,1.88115374375C3.850018010546875,1.88115374375,3.762518610546875,1.79365374375,3.675018310546875,1.70615364375C3.587518710546875,1.79365344375,3.500018610546875,1.88115374375,3.368768710546875,1.88115374375C3.106268610546875,1.92490364375,2.843768610546875,2.01240374375,2.625018610546875,2.18740364375C2.537518710546875,2.27490354375,2.406268610546875,2.27490354375,2.318768710546875,2.27490354375C2.275018710546875,2.40615364375,2.275018710546875,2.53740354375,2.187518610546875,2.62490364375C2.0125186105468753,2.84365364375,1.925018810546875,3.10615374375,1.881268710546875,3.36865374375C1.881268710546875,3.49990394375,1.793768910546875,3.58740374375,1.706268810546875,3.67490384375C1.793768610546875,3.76240374375,1.837518810546875,3.84990354375,1.881268710546875,3.98115374375C1.925018810546875,4.24365374375,2.0125189105468753,4.50615354375,2.187518610546875,4.72490354375C2.231268610546875,4.81240364375,2.275018710546875,4.94365354375,2.275018710546875,5.03115324375ZM13.956269310546874,6.91240314375L13.081269310546874,6.91240314375C13.081269310546874,3.63115284375,10.412519310546875,0.96240240375,7.131269010546875,0.96240240375C6.912519010546875,0.96240240375,6.737519310546875,0.87490236375,6.650018710546875,0.65615236375L7.393769310546875,0.21865235375C7.350019010546875,0.13115235775,7.262519310546875,0.08740234375,7.131269010546875,0.08740234375C10.893769310546874,0.08740234375,13.956269310546874,3.14990254375,13.956269310546874,6.91240314375ZM3.675018110546875,5.42490294375C2.712518210546875,5.42490294375,1.925018110546875,4.63740304375,1.925018110546875,3.67490294375C1.925018110546875,2.71240304375,2.712518210546875,1.92490284375,3.675018110546875,1.92490284375C4.637517910546875,1.92490284375,5.425018310546875,2.71240304375,5.425018310546875,3.67490294375C5.425018310546875,4.63740304375,4.637517910546875,5.42490294375,3.675018110546875,5.42490294375ZM3.675018110546875,2.79990294375C3.193768010546875,2.79990294375,2.800018110546875,3.19365284375,2.800018110546875,3.67490294375C2.800018110546875,4.15615324375,3.193768010546875,4.54990294375,3.675018110546875,4.54990294375C4.156268610546875,4.54990294375,4.550018310546875,4.15615324375,4.550018310546875,3.67490294375C4.550018310546875,3.19365264375,4.156268610546875,2.79990294375,3.675018110546875,2.79990294375Z" fill="currentColor" fill-opacity="1"/></g><g><path d="M5.687506003515625,10.631347156250001L5.512506003515625,10.45634745625L5.337506103515625,10.631347156250001L5.337506103515625,10.32509705625L5.075006003515625,10.062596756249999L4.812505703515625,10.281346756249999L4.812505703515625,10.58759685625L4.637506003515625,10.412597156250001L4.462506103515625,10.58759685625L4.462506103515625,10.281346756249999L4.200006003515625,10.01884655625L3.937505703515625,10.281346756249999L3.937505703515625,10.58759685625L3.762505903515625,10.412597156250001L3.587506103515625,10.58759685625L3.587506103515625,10.281346756249999L3.3250060035156253,10.01884655625L3.062506083515625,10.281346756249999L3.062506083515625,10.58759685625L2.8875060035156253,10.412597156250001L2.712505993515625,10.58759685625L2.712505993515625,10.281346756249999L2.4062560535156248,9.97509625625L2.100006103515625,9.97509625625L2.275006163515625,9.80009655625L2.100006103515625,9.625096756249999L2.4062560535156248,9.625096756249999L2.712505993515625,9.31884625625L2.712505993515625,9.01259615625L2.8875060035156253,9.187595856249999L3.062506083515625,9.01259615625L3.062506083515625,9.31884625625L3.3250060035156253,9.625096756249999L3.587506103515625,9.36259655625L3.587506103515625,9.056346456250001L3.762505903515625,9.187595856249999L3.937505703515625,9.01259615625L3.937505703515625,9.31884625625L4.200006003515625,9.625096756249999L4.462506103515625,9.36259655625L4.462506103515625,9.056346456250001L4.637506003515625,9.187595856249999L4.812505703515625,9.01259615625L4.812505703515625,9.31884625625L5.075006003515625,9.58134655625L5.337506103515625,9.31884625625L5.337506103515625,9.01259615625L5.512506003515625,9.187595856249999L5.687506003515625,9.01259615625L5.687506003515625,9.31884625625L5.993755803515625,9.625096756249999L6.300005903515625,9.625096756249999L6.125005703515625,9.80009655625L6.300005903515625,9.97509625625L5.993755803515625,9.97509625625L5.687506003515625,10.281346756249999L5.687506003515625,10.631347156250001ZM11.112505903515626,5.90634715625L10.937506703515625,5.73134735625L10.762506503515626,5.90634715625L10.762506503515626,5.6000971562499995L10.500005703515624,5.33759715625L10.237505903515626,5.6000971562499995L10.237505903515626,5.90634715625L10.062506203515625,5.73134735625L9.887506503515624,5.90634715625L9.887506503515624,5.6000971562499995L9.625006203515625,5.33759715625L9.362505903515626,5.6000971562499995L9.362505903515626,5.90634715625L9.187506203515625,5.73134735625L9.012506003515625,5.90634715625L9.012506003515625,5.6000971562499995L8.750006203515625,5.33759715625L8.487505903515626,5.6000971562499995L8.487505903515626,5.90634715625L8.312506203515625,5.73134735625L8.312506203515625,5.90634715625L8.312506203515625,5.6000971562499995L7.962506303515625,5.25009715625L7.656256203515625,5.25009715625L7.831255903515625,5.07509732625L7.656256203515625,4.90009748625L7.962506303515625,4.90009748625L8.312506203515625,4.59384757625L8.312506203515625,4.28759765625L8.487505903515626,4.46259748625L8.662505603515626,4.28759765625L8.662505603515626,4.59384757625L8.925005903515626,4.85634773625L9.187506203515625,4.59384757625L9.187506203515625,4.28759765625L9.362505903515626,4.46259748625L9.537505603515626,4.28759765625L9.537505603515626,4.59384757625L9.800005903515626,4.85634773625L10.062506203515625,4.59384757625L10.062506203515625,4.28759765625L10.237505903515626,4.46259748625L10.412506103515625,4.28759765625L10.412506103515625,4.59384757625L10.675005903515626,4.85634773625L10.937506703515625,4.59384757625L10.937506703515625,4.28759765625L11.112505903515626,4.46259748625L11.287506103515625,4.28759765625L11.287506103515625,4.59384757625L11.593756703515625,4.90009748625L11.900006303515624,4.90009748625L11.725007103515624,5.07509732625L11.900006303515624,5.25009715625L11.593756703515625,5.25009715625L11.287506103515625,5.55634715625L11.287506103515625,5.90634715625L11.112505903515626,5.90634715625Z" fill="currentColor" fill-opacity="1"/></g></g></svg>