<svg xmlns="http://www.w3.org/2000/svg" xmlns:xlink="http://www.w3.org/1999/xlink" fill="none" version="1.1" width="14" height="14" viewBox="0 0 14 14"><defs><clipPath id="master_svg0_2370_13107"><rect x="0" y="0" width="14" height="14" rx="0"/></clipPath></defs><g clip-path="url(#master_svg0_2370_13107)"><g><path d="M12.599999,4.550292768749999L11.9,4.550292768749999C11.809766,4.550292768749999,11.722265,4.558495768749999,11.636132,4.57490206875C11.353125,4.18251896875,10.891015,3.85029266875,10.5,3.85029266875L7,3.85029266875L7,1.7502928987500002C7,1.36337881875,6.686914,1.05029296875,6.2999997,1.05029296875L2.7999997,1.05029296875C2.4130857,1.05029296875,2.0999999,1.36337893875,2.0999999,1.7502928987500002L2.0999999,3.85029296875C1.7240233,3.85029296875,1.2824217,4.15654296875,0.99804676,4.52978536875C0.92832023,4.50927756875,0.85449207,4.4983401687499995,0.7779296,4.4983401687499995C0.34863281,4.4969725687499995,0,4.84560516875,0,5.27490236875L0,10.05869106875C0,10.48798846875,0.34863281,10.83662126875,0.77792972,10.83662126875C0.82578129,10.83662126875,0.87089843,10.83388616875,0.91191411,10.82705016875C1.1621094,11.27275296875,1.5968751,11.68154196875,2.0001953,11.68154196875L2.034375,11.68154196875L1.4,12.94892596875L11.900001,12.94892596875L11.2,11.54892496875L11.171289,11.54892496875C11.231446,11.51611196875,11.288867,11.47783096875,11.344923,11.43408096875C11.515821,11.50790996875,11.703126,11.54892496875,11.900001,11.54892496875L12.6,11.54892496875C13.373828,11.54892496875,14,10.92275336875,14,10.14892486875L14,5.95029356875C14,5.17646456875,13.373828,4.55029296875,12.599999,4.550292768749999ZM5.5999999,1.7502928987500002C5.9869142,1.7502928987500002,6.3000002,2.06337876875,6.3000002,2.45029286875C6.3000002,2.83720696875,5.9869146,3.15029286875,5.5999999,3.15029286875C5.2130857,3.15029286875,4.9000001,2.83720696875,4.9000001,2.45029286875C4.9000001,2.06337876875,5.2130857,1.7502928987500002,5.5999999,1.7502928987500002ZM3.5,1.7502928987500002C3.8869138,1.7502928987500002,4.2000003,2.06337876875,4.2000003,2.45029286875C4.2000003,2.83720696875,3.8869143,3.15029286875,3.5,3.15029286875C3.1130857,3.15029286875,2.8,2.83720696875,2.8,2.45029286875C2.8,2.06337876875,3.113086,1.7502928987500002,3.5,1.7502928987500002ZM10.5,10.85029316875L2.1000001,10.85029316875L2.1000001,10.15029236875L10.5,10.15029236875L10.5,10.85029316875ZM10.5,9.45029256875L2.1000001,9.45029256875L2.1000001,8.75029326875L10.5,8.75029326875L10.5,9.45029256875ZM10.5,8.050291968749999L2.1000001,8.050291968749999L2.1000001,7.35029216875L10.5,7.35029216875L10.5,8.050291968749999ZM10.5,6.65029196875L2.1000001,6.65029196875L2.1000001,5.95029166875L10.5,5.95029166875L10.5,6.65029196875ZM10.5,5.25029226875L2.1000001,5.25029226875L2.1000001,4.55029196875L10.5,4.55029196875L10.5,5.25029226875Z" fill="currentColor" fill-opacity="1"/></g></g></svg>