<svg xmlns="http://www.w3.org/2000/svg" xmlns:xlink="http://www.w3.org/1999/xlink" fill="none" version="1.1" width="14" height="14" viewBox="0 0 14 14"><defs><clipPath id="master_svg0_2370_13115"><rect x="0" y="0" width="14" height="14" rx="0"/></clipPath></defs><g clip-path="url(#master_svg0_2370_13115)"><g><path d="M8.230832594140626,1.167004704475C8.427198894140625,1.1653772891,8.588135194140625,1.3224080675,8.591331994140624,1.5187547774999999L8.591331994140624,2.2479215875C8.603348294140625,2.4592631875,8.731975594140625,2.6463560875,8.924998794140624,2.7332547875C9.239998794140625,2.8639213875,9.539248494140624,3.0325046875,9.815165494140626,3.2343380875C9.991914794140625,3.3545045875,10.219998394140624,3.3702547875,10.411915794140626,3.2751712875L11.060582194140625,2.9088381875C11.232789494140626,2.8116479875,11.451038494140626,2.8684030875,11.554081494140625,3.0371713875L12.784915494140625,5.1214212875000005C12.884231494140625,5.2905349875,12.824661494140624,5.5082592875,12.653082494140625,5.6032547875L12.003832494140624,5.9695882875C11.824732494140624,6.0810126875,11.723826494140624,6.2839536875,11.743083494140626,6.4940051875C11.764665494140624,6.6614217875,11.775166494140626,6.8305883875,11.774582494140626,6.9991716875C11.774582494140626,7.1665882875,11.764082494140625,7.3345884875,11.741915494140626,7.5008382875C11.722082494140626,7.7108382875,11.823582494140625,7.9138383875,12.002666494140625,8.0258388875L12.651332494140625,8.3910059875C12.822698494140624,8.486206987500001,12.881992494140626,8.703880287499999,12.782582494140625,8.8728394875L11.552915494140626,10.9565057875C11.450478494140626,11.1256169875,11.232329494140625,11.1829301875,11.059998494140626,11.0860061875L10.410748494140625,10.7190894875C10.218788194140625,10.6232518875,9.989981694140624,10.6388768875,9.812831894140626,10.7599229875C9.537577594140625,10.9617032875,9.239111894140626,11.1297368875,8.923832394140625,11.2604231875C8.730947494140626,11.3473821875,8.602527094140626,11.5345031875,8.590748794140625,11.7457561875L8.590748794140625,12.4819221875C8.587552094140625,12.6782691875,8.426615194140625,12.8353001875,8.230248894140626,12.8336721875L5.766832394140625,12.8336721875C5.570599994140625,12.8343321875,5.410374194140625,12.6769671875,5.407498794140625,12.4807561875L5.407498794140625,11.7486711875C5.395689994140625,11.5366341875,5.266500994140625,11.3489281875,5.072665694140625,11.2621721875C4.757457694140625,11.1314439875,4.4588489941406255,10.9638318875,4.183082594140625,10.7628383875C4.006294494140625,10.6420011875,3.777932194140625,10.6263751875,3.586332294140625,10.7220048875L2.938832194140625,11.0889215875C2.7662699941406252,11.1850951875,2.5485503941406247,11.1276368875,2.445915594140625,10.9588384875L1.214498777140625,8.874588487499999C1.115589108140625,8.7056016875,1.175109938740625,8.4883246875,1.346332164140625,8.3933381875L1.995582284140625,8.028171087499999C2.174658894140625,7.9164976875,2.275353794140625,7.7133016875,2.255748894140625,7.5031704875C2.213901294140625,7.1694497875,2.213901294140625,6.8318085875,2.255748894140625,6.4980873875C2.2751141941406248,6.2877139875,2.1739383941406247,6.0844592875,1.994415524140625,5.9730877875L1.346915454140625,5.6079210875C1.175409824540625,5.5129069875,1.115636255140625,5.2954043875,1.214498777140625,5.1260876875L2.4453322941406253,3.0430042875C2.5477427941406248,2.8742328875,2.765468994140625,2.8169635875,2.9376655941406247,2.9135044875L3.586332294140625,3.2786709875C3.778248794140625,3.3743378875,4.006332394140625,3.3591708875,4.183665794140625,3.2384209875C4.459358494140625,3.0371551875,4.757977294140625,2.8693412875,5.073249094140625,2.7385043875C5.266857594140625,2.6515812875,5.395799194140625,2.4639078875,5.407498794140625,2.2520043875L5.407498794140625,1.5187546575C5.410694094140625,1.3226368175,5.571276194140625,1.1656987667,5.767415494140625,1.167004704475L8.230832594140626,1.167004704475ZM6.925915194140625,3.6047544875C5.041748794140625,3.6047544875,3.514581694140625,5.1190876875,3.514581694140625,6.9863381875L3.515165094140625,7.0633382875C3.557748094140625,8.9300050875,5.119915294140625,10.4093379875,7.004081694140625,10.3667554875L7.081665494140625,10.3679217875C8.965832694140625,10.3679217875,10.492999094140625,8.8535880875,10.492999094140625,6.9863381875L10.492415394140625,6.9093379875C10.449831994140625,5.0426711875,8.887665794140625,3.5633382875,7.003498594140625,3.6053380875C6.977641094140625,3.6048626875,6.951778394140625,3.6046681875,6.925915194140625,3.6047544875ZM4.726748694140625,5.5326709875L3.966665294140625,6.9863381875L4.726165294140625,8.440004787500001L5.485082194140625,8.440004787500001L4.726165294140625,6.9863381875L5.485082194140625,5.5326714875L4.726748694140625,5.5326709875ZM5.861331894140625,8.440004787500001L6.620248794140625,8.440004787500001L8.147415594140625,5.5326709875L7.387915594140625,5.5326709875L5.861331894140625,8.440004787500001ZM8.522498594140625,5.5326709875L9.281998594140624,6.9863381875L8.522498594140625,8.440004787500001L9.281998594140624,8.440004787500001L10.040915494140625,6.9863381875L9.281998594140624,5.5326714875L8.522498594140625,5.5326709875Z" fill="currentColor" fill-opacity="1"/></g></g></svg>