<svg xmlns="http://www.w3.org/2000/svg" xmlns:xlink="http://www.w3.org/1999/xlink" fill="none" version="1.1" width="10.712600708007812" height="14.28369140625" viewBox="0 0 10.712600708007812 14.28369140625"><g transform="matrix(0,1,-1,0,10.712600708007812,-10.712600708007812)"><path d="M11.426773908007812,0L24.281891708007812,0Q24.99606370800781,0,24.99606370800781,0.7141732Q24.99606370800781,1.4283464,24.281891708007812,1.4283464L11.426773368007812,1.4283464Q10.712600171434982,1.4283464,10.712600171434982,0.7141732Q10.712600171434982,0,11.426773908007812,0ZM11.426774438007813,4.6421204L24.281891708007812,4.6421204Q24.99606370800781,4.6421204,24.99606370800781,5.3562932Q24.99606370800781,6.070467,24.281891708007812,6.070467L11.426773908007812,6.070467Q10.712600708007812,6.070467,10.712600708007812,5.3562932Q10.712600708007812,4.6421199,11.426774438007813,4.6421204ZM11.426774438007813,9.284256L24.281891708007812,9.284256Q24.99606370800781,9.284256,24.99606370800781,9.9984293Q24.99606370800781,10.712603,24.281891708007812,10.712603L11.426773908007812,10.712603Q10.712600708007812,10.712603,10.712600708007812,9.9984293Q10.712600708007812,9.284256,11.426774438007813,9.284256Z" fill="currentColor" fill-opacity="1"/></g></svg>