<svg xmlns="http://www.w3.org/2000/svg" xmlns:xlink="http://www.w3.org/1999/xlink" fill="none" version="1.1" width="14" height="14" viewBox="0 0 14 14"><defs><clipPath id="master_svg0_2370_13124"><rect x="0" y="0" width="14" height="14" rx="0"/></clipPath></defs><g clip-path="url(#master_svg0_2370_13124)"><g><path d="M9.34509375703125,0.2587890625C9.62019345703125,0.2587890625,9.88619325703125,0.4463890625,9.92609305703125,0.7130891125000001L9.93029305703125,0.7809891125L10.97539345703125,0.7809891125C11.38489345703125,0.7809891125,11.48779345703125,1.3094891625,11.49899245703125,1.3801891625L11.50039245703125,1.3878891625L11.50039245703125,5.9588894625C11.16550945703125,5.8100652625,10.81246845703125,5.7060356625,10.45039345703125,5.6494893625L10.44479345703125,1.5894892625L9.92189315703125,1.5894892625L9.90159325703125,5.6004896625C6.85523415703125,5.5257716625,4.74576665703125,8.6182718625,5.92699335703125,11.4272900625L1.05289335703125,11.4300900625C1.05289335703125,11.7779900625,1.52609335703125,11.9641890625,1.59889355703125,11.9907900625L1.60869345703125,11.9942900625L6.21819355703125,11.9942900625C6.54711485703125,12.5298280625,6.99145745703125,12.9851710625,7.51879355703125,13.3270890625L1.51489355703125,13.3270890625C0.61189353703125,13.3270890625,0.04909350703125,11.8171900625,0.00289345723125,11.6918910625L0.00079345703125,11.6834910625L0.00079345703125,0.8047891225L0.00499345733125,0.7305890925C0.03634499803125,0.4894812125,0.22428673703125,0.2986788675,0.46489348703125,0.2636890677L0.53909349703125,0.2587890625L9.34509375703125,0.2587890625ZM10.67789345703125,6.9997897625L10.73879345703125,7.0067896625C11.12239345703125,7.0872897625,11.48499345703125,7.2384900625,11.81119345703125,7.4512905625C11.89719745703125,7.5077090625,11.95403145703125,7.5991029625,11.96659345703125,7.7011895625L11.96869445703125,7.7627897625L11.94419445703125,8.2359900625L12.41809445703125,8.211490162499999C12.49977745703125,8.2075295625,12.58026845703125,8.2322950625,12.64559445703125,8.2814903625L12.69109445703125,8.3213910625L12.72889445703125,8.3703908625C12.94169445703125,8.6951894625,13.09289445703125,9.0577897625,13.17269445703125,9.4399890625C13.19382945703125,9.5407810625,13.16950445703125,9.6457652625,13.10619445703125,9.7269906625L13.06419345703125,9.7717895625L12.71209445703125,10.0895900625L13.06489345703125,10.4073900625C13.12561145703125,10.4621590625,13.16523745703125,10.5364560625,13.17689445703125,10.6173900625L13.18039445703125,10.6782900625L13.17339445703125,10.7391900625C13.09309145703125,11.1212680625,12.94209945703125,11.4849770625,12.72819345703125,11.8115910625C12.67192845703125,11.8974230625,12.58082645703125,11.9542330625,12.47899345703125,11.9669900625L12.41739345703125,11.9690910625L11.94419345703125,11.9445910625L11.96869345703125,12.4177910625C11.97285545703125,12.4993890625,11.94833945703125,12.5798710625,11.89939345703125,12.6452910625L11.85949345703125,12.6907920625L11.81049345703125,12.7285910625C11.48499345703125,12.9413920625,11.12239345703125,13.0925910625,10.73949445703125,13.1730910625C10.63870345703125,13.1942280625,10.53371845703125,13.1699020625,10.45249345703125,13.1065900625L10.40699345703125,13.0645900625L10.08919345703125,12.7124910625L9.77139375703125,13.0652910625C9.71662525703125,13.1260090625,9.64232735703125,13.1656340625,9.56139375703125,13.1772920625L9.50119395703125,13.1800900625L9.43959335703125,13.1730910625C9.05834295703125,13.0929670625,8.69537445703125,12.9424630625,8.36929325703125,12.7292910625C8.28346255703125,12.6730240625,8.22665215703125,12.5819220625,8.21389385703125,12.4800910625L8.21109385703125,12.4184900625L8.23559375703125,11.9445900625L7.76239395703125,11.9690890625C7.68056015703125,11.9734170625,7.59980245703125,11.9488930625,7.53419355703125,11.8997910625L7.48939375703125,11.8598900625L7.45089385703125,11.8108900625C7.23764135703125,11.4845970625,7.08713295703125,11.1213840625,7.00709345703125,10.7398910625C6.98576165703125,10.6392020625,7.00982805703125,10.5342280625,7.07289365703125,10.4528890625L7.11489395703125,10.4073900625L7.46699425703125,10.0902900625L7.11489395703125,9.7731895625C7.05417685703125,9.7184219625,7.01455115703125,9.6441249625,7.00289395703125,9.5631894625L7.00009345703125,9.5015897625L7.00709345703125,9.4406890625C7.08759355703125,9.0570888625,7.23879385703125,8.6944885625,7.45159385703125,8.3696899625C7.50771425703125,8.2835931625,7.59883785703125,8.2265119625,7.70079375703125,8.2135896625L7.76239395703125,8.2107891625L8.23629375703125,8.2352890625L8.21179385703125,7.7613897625C8.20783325703125,7.6797070625,8.23259925703125,7.5992164625,8.28179355703125,7.5338892625L8.32169435703125,7.4883894625L8.37069415703125,7.4505896625C8.69549365703125,7.2377891625,9.05809405703125,7.0865888625,9.44169425703125,7.0067891625C9.54238225703125,6.9854569625,9.64735505703125,7.0095233625,9.72869395703125,7.0725889625L9.77349375703125,7.1145892625L10.09059345703125,7.4666900625L10.40769345703125,7.1145892625C10.47661445703125,7.0381240625,10.57570245703125,6.9958772625,10.67859345703125,6.9990892625L10.67789345703125,6.9997897625ZM10.78569445703125,7.7403893625L10.34959445703125,8.224789662500001C10.22832845703125,8.3590936625,10.02468345703125,8.3788223625,9.87989425703125,8.2702894625L9.83019445703125,8.224789662500001L9.39339445703125,7.7403893625L9.23589415703125,7.7928905625L9.15189365703125,7.8264894625L9.06859395703125,7.8621897625L8.92089465703125,7.9363903625L8.95449355703125,8.5873899625C8.96296695703125,8.7483949625,8.86035915703125,8.8943576625,8.70599365703125,8.9408912625L8.64789385703125,8.9527902625L8.58699415703125,8.9548911625L7.93599315703125,8.9212913625L7.86179355703125,9.0689916625L7.82609365703125,9.1522912625L7.79249385703125,9.2362918625L7.73999355703125,9.3937921625L8.22439385703125,9.8305911625C8.34031105703125,9.9352445625,8.37286945703125,10.1040315625,8.30419345703125,10.2442922625L8.26919365703125,10.3002910625L8.22439385703125,10.3499920625L7.73999355703125,10.7860920625L7.79249385703125,10.9442910625L7.82609365703125,11.0282920625L7.86179355703125,11.1115910625L7.93599315703125,11.2585910625L8.58699415703125,11.2256920625C8.74799825703125,11.2172180625,8.89396095703125,11.3198260625,8.94049455703125,11.4741920625L8.95239445703125,11.5322920625L8.95449445703125,11.5931910625L8.92089465703125,12.2434920625L9.06859495703125,12.3176930625L9.15119555703125,12.3540920625L9.23519515703125,12.3869910625L9.39269545703125,12.4387910625L9.83019545703125,11.9557910625C9.93484875703125,11.8398720625,10.10363645703125,11.8073150625,10.24389545703125,11.8759920625L10.29989645703125,11.9102920625L10.34959645703125,11.9557910625L10.78569645703125,12.4387910625L10.94389645703125,12.3869910625L11.02789545703125,12.3540920625L11.11119545703125,12.3176930625L11.25819545703125,12.2427920625L11.22529645703125,11.5931910625C11.21682245703125,11.4321880625,11.31943045703125,11.2862250625,11.47379645703125,11.2396920625L11.53189545703125,11.2277910625L11.59279645703125,11.2256920625L12.24239645703125,11.2585910625L12.31729645703125,11.1115900625L12.35369645703125,11.0289900625L12.38659545703125,10.9449910625L12.43839645703125,10.7860900625L11.95539645703125,10.3499900625C11.83947845703125,10.2453384625,11.80692145703125,10.0765514625,11.87559645703125,9.9362907625L11.90989545703125,9.8802900625L11.95539645703125,9.8305911625L12.43839645703125,9.3930911625L12.38659545703125,9.2355909625L12.35369645703125,9.1515903625L12.31729645703125,9.0689897625L12.24309645703125,8.9212894625L11.59209645703125,8.9548902625C11.43115145703125,8.9629459625,11.28550545703125,8.8600692625,11.23929645703125,8.7056903625L11.22739645703125,8.6482887625L11.22529545703125,8.5873899625L11.25819445703125,7.9363884625L11.11119445703125,7.8621897625L11.02859445703125,7.8264894625L10.94459445703125,7.7928891625L10.78569445703125,7.7403893625ZM10.15009445703125,8.7497901625C10.92329245703125,8.7497901625,11.55009245703125,9.3765916625,11.55009245703125,10.1497907625C11.55009245703125,10.9229890625,10.92329245703125,11.5497890625,10.15009445703125,11.5497890625C9.37689495703125,11.5497890625,8.75009345703125,10.9229890625,8.75009345703125,10.1497907625C8.75009345703125,9.3765916625,9.37689495703125,8.7497901625,10.15009445703125,8.7497901625ZM10.15009445703125,9.4497890625C9.76349445703125,9.4497890625,9.45009325703125,9.7631912625,9.45009325703125,10.1497907625C9.45009325703125,10.5363890625,9.76349445703125,10.8497900625,10.15009445703125,10.8497900625C10.53669245703125,10.8497900625,10.85009345703125,10.5363890625,10.85009345703125,10.1497907625C10.85009345703125,9.7631912625,10.53669245703125,9.4497890625,10.15009445703125,9.4497890625ZM3.69679355703125,4.0863895625C3.67410565703125,4.0862400625,3.65165565703125,4.0910165625,3.63099335703125,4.1003892625L3.60159345703125,4.1185893625L1.47499385703125,5.7138895625C1.40402925703125,5.7667255625,1.38958525703125,5.8672051625,1.44279375703125,5.9378895625L1.45819375703125,5.9546894625L1.47499365703125,5.9693894625L3.60159345703125,7.5632891625C3.69442505703125,7.6333360625,3.82859925703125,7.5837654625,3.85359355703125,7.4701895625L3.85709385703125,7.4358897625L3.85709385703125,6.1597895625L6.72919365703125,6.1597895625C7.05234435703125,6.1591863625,7.32408045703125,5.9172091625,7.36199335703125,5.5962891625L7.36619325703125,5.5220894625L3.85709335703125,5.5220894625L3.85709335703125,4.2459893625C3.85748335703125,4.1576831625,3.78579905703125,4.0859989625,3.69749305703125,4.0863890625L3.69679355703125,4.0863895625ZM6.10199355703125,0.8033891325C6.03033015703125,0.8029634325,5.96725035703125,0.8505601325,5.94799375703125,0.9195891625L5.94309375703125,0.9622891525L5.94309375703125,2.2397891625L2.43399355703125,2.2397891625C2.43399355703125,2.5666892625,2.68039345703125,2.8361892625,2.99679355703125,2.8732890625L3.07169345703125,2.8774893625L5.94309325703125,2.8774893625L5.94309325703125,4.153589262500001C5.94309325703125,4.1878890625,5.95359325703125,4.2207891625,5.97459315703125,4.2487892625C6.01796055703125,4.3063597625,6.09430785703125,4.3280916625,6.16149325703125,4.3019895625L6.19859315703125,4.2809891625L8.32379345703125,2.6856891625C8.39497475703125,2.6321234625,8.40852545703125,2.5306556625,8.35389325703125,2.4602889625L8.32379345703125,2.4301891625L6.19719365703125,0.8348889325C6.16987795703125,0.8139549525,6.13640925703125,0.8026345925,6.10199355703125,0.8026888925L6.10199355703125,0.8033891325Z" fill="currentColor" fill-opacity="1"/></g></g></svg>